<svg xmlns="http://www.w3.org/2000/svg" xmlns:xlink="http://www.w3.org/1999/xlink" viewBox="0 0 636.8034013509559 338.4710507052858" width="636.8034013509559px" height="338.4710507052858px" version="1.1"><defs><path d="M25,-76.94208526611328L65.4508501291275,-47.552823066711426L80.90170100000637,0.000002558634037086449L65.4508528464005,47.552829159344014L25.000004199993015,76.94209384838882L-24.999996239723174,76.94209673407326L-65.45084842075129,47.55283661078049L-80.90170217195892,0.000011458965673227794L-65.45085662692233,-47.552816451664704L-25.000009320939867,-76.94208373373591Z" fill="#00ffff" stroke="#00ffff" stroke-width="0.5" id="shape1_fill"></path><path d="M25,-76.94208526611328L65.4508501291275,-47.552823066711426L80.90170100000637,0.000002558634037086449L65.4508528464005,47.552829159344014L25.000004199993015,76.94209384838882L-24.999996239723174,76.94209673407326L-65.45084842075129,47.55283661078049L-80.90170217195892,0.000011458965673227794L-65.45085662692233,-47.552816451664704L-25.000009320939867,-76.94208373373591Z" fill="none" stroke-linejoin="miter" stroke="#808080" stroke-width="1.5" id="shape1_outline"></path><path d="M52.95085144042969,-38.47104263305664L37.500001311302185,9.08178436756134L-2.950849168395912,38.47104821895604L-52.95085059891701,38.47104934938612L-37.50000110283708,-9.08177936106042L2.9508498697267598,-38.47104496783153Z" fill="#40ffa0" stroke="#40ffa0" stroke-width="0.5" id="shape2_fill"></path><path d="M52.95085144042969,-38.47104263305664L37.500001311302185,9.08178436756134L-2.950849168395912,38.47104821895604L-52.95085059891701,38.47104934938612L-37.50000110283708,-9.08177936106042L2.9508498697267598,-38.47104496783153Z" fill="none" stroke-linejoin="miter" stroke="#808080" stroke-width="1.5" id="shape2_outline"></path><path d="M52.95084762573242,-9.081780433654785L37.49999749660492,38.471046566963196L-2.950854224153943,9.081782438848151L-52.95085682136643,9.081781814023817L-37.50000529541284,-38.47104746360874L2.950848159272624,-9.081781303396891Z" fill="#ff80ff" stroke="#ff80ff" stroke-width="0.5" id="shape3_fill"></path><path d="M52.95084762573242,-9.081780433654785L37.49999749660492,38.471046566963196L-2.950854224153943,9.081782438848151L-52.95085682136643,9.081781814023817L-37.50000529541284,-38.47104746360874L2.950848159272624,-9.081781303396891Z" fill="none" stroke-linejoin="miter" stroke="#808080" stroke-width="1.5" id="shape3_outline"></path><path d="M32.725425720214844,-23.776412963867188L17.27457559108734,23.776414036750793L-32.725426918181896,23.776414036750793L-17.274576013647533,-23.776415350324108Z" fill="#0080ff" stroke="#0080ff" stroke-width="0.5" id="shape4_fill"></path><path d="M32.725425720214844,-23.776412963867188L17.27457559108734,23.776414036750793L-32.725426918181896,23.776414036750793L-17.274576013647533,-23.776415350324108Z" fill="none" stroke-linejoin="miter" stroke="#808080" stroke-width="1.5" id="shape4_outline"></path><path d="M25,-38.47104263305664L40.4508501291275,9.08178436756134L-0.0000015916313600428111,38.471048495676385L-40.4508543974859,9.081783726555429L-25.00000321863169,-38.47104689058853Z" fill="#ffff60" stroke="#ffff60" stroke-width="0.5" id="shape5_fill"></path><path d="M25,-38.47104263305664L40.4508501291275,9.08178436756134L-0.0000015916313600428111,38.471048495676385L-40.4508543974859,9.081783726555429L-25.00000321863169,-38.47104689058853Z" fill="none" stroke-linejoin="miter" stroke="#808080" stroke-width="1.5" id="shape5_outline"></path></defs><g transform="translate(0,338.4710507052858) scale(1,-1)"><rect width="100%" height="100%" fill="#808080"></rect><g id="layer_shapes"><use xlink:href="#shape1_fill" transform="rotate(0 150 150) translate(150 150)"></use><use xlink:href="#shape2_fill" transform="rotate(0 268.4017034453175 159.08177980995788) translate(268.4017034453175 159.08177980995788)"></use><use xlink:href="#shape3_fill" transform="rotate(0 358.8525596167019 159.08178431053256) translate(358.8525596167019 159.08178431053256)"></use><use xlink:href="#shape4_fill" transform="rotate(0 429.07797873607586 173.77641677856445) translate(429.07797873607586 173.77641677856445)"></use><use xlink:href="#shape5_fill" transform="rotate(0 486.80340135095594 188.4710507052858) translate(486.80340135095594 188.4710507052858)"></use></g><g id="layer_inner_polygons"></g><g id="layer_outlines"><use xlink:href="#shape1_outline" transform="rotate(0 150 150) translate(150 150)"></use><use xlink:href="#shape2_outline" transform="rotate(0 268.4017034453175 159.08177980995788) translate(268.4017034453175 159.08177980995788)"></use><use xlink:href="#shape3_outline" transform="rotate(0 358.8525596167019 159.08178431053256) translate(358.8525596167019 159.08178431053256)"></use><use xlink:href="#shape4_outline" transform="rotate(0 429.07797873607586 173.77641677856445) translate(429.07797873607586 173.77641677856445)"></use><use xlink:href="#shape5_outline" transform="rotate(0 486.80340135095594 188.4710507052858) translate(486.80340135095594 188.4710507052858)"></use></g><g id="layer_texture"></g><g id="layer_knot_pattern_shadow"></g><g id="layer_knot_pattern_filling"></g><g id="layer_knot_pattern_lines"></g></g></svg>