<svg xmlns="http://www.w3.org/2000/svg" xmlns:xlink="http://www.w3.org/1999/xlink" viewBox="0 0 636.8034013509559 338.4710507052858" width="636.8034013509559px" height="338.4710507052858px" version="1.1"><defs><path d="M25,-76.94208526611328L65.4508501291275,-47.552823066711426L80.90170100000637,0.000002558634037086449L65.4508528464005,47.552829159344014L25.000004199993015,76.94209384838882L-24.999996239723174,76.94209673407326L-65.45084842075129,47.55283661078049L-80.90170217195892,0.000011458965673227794L-65.45085662692233,-47.552816451664704L-25.000009320939867,-76.94208373373591Z" fill="#00ffff" stroke="#00ffff" stroke-width="0.5" id="shape1_fill"></path><g id="shape1_inner_polygons"><path d="M 45.22542577874776,14.694634986795492 L 45.22542682703399,32.85819829506832 L 27.950851496486372,38.47104850491566 L 27.950851496486372,38.47104850491566 L 17.27457785372243,53.16568066496014 L 0.0000021688528946128827,47.55283144222001 L 0.0000021688528946128827,47.55283144222001 L -17.27457268187327,53.16568259839728 L -27.950848173475435,38.47105146054744 L -27.950848173475435,38.47105146054744 L -45.22542402640001,32.85820328543629 L -45.225425074686264,14.69463965352191 L -45.225425074686264,14.69463965352191 L -55.901701318028685,0.000009264441427347947 L -45.22542748503305,-14.694623157434556 L -45.22542748503305,-14.694623157434556 L -45.22542958160553,-32.85818662544362 L -27.950853405416836,-38.4710382122899 L -27.950853405416836,-38.4710382122899 L -17.2745793656517,-53.165670082369715 L -0.0000013422575975141626,-47.552821202030486 L -0.0000013422575975141626,-47.552821202030486 L 17.27457181782039,-53.16567070664944 L 27.950845216258532,-38.47104161340268 L 27.950845216258532,-38.47104161340268 L 45.22542506456375,-32.85819103788046 L 45.22542506456375,-14.694627565702348 L 45.22542506456375,-14.694627565702348 L 55.9017003659342,0.0000033103160284042588 L 45.22542577874776,14.694634986795492 " fill="#ff0000"></path><path d="M 45.225428523196754,62.24746150386642 L 45.22542682703399,32.85819829506832 L 27.950851496486372,38.47104850491566 L 17.27457785372243,53.16568066496014 " fill="#0000ff"></path><path d="M 0.000003980134920311684,76.94209529123104 L 17.27457785372243,53.16568066496014 L 0.0000021688528946128827,47.55283144222001 L -17.27457268187327,53.16568259839728 " fill="#0000ff"></path><path d="M -45.22542233023723,62.247466672426874 L -17.27457268187327,53.16568259839728 L -27.950848173475435,38.47105146054744 L -45.22542402640001,32.85820328543629 " fill="#0000ff"></path><path d="M -73.1762752963551,23.77642403487308 L -45.22542402640001,32.85820328543629 L -45.225425074686264,14.69463965352191 L -55.901701318028685,0.000009264441427347947 " fill="#0000ff"></path><path d="M -73.17627939944063,-23.776402496349515 L -55.901701318028685,0.000009264441427347947 L -45.22542748503305,-14.694623157434556 L -45.22542958160553,-32.85818662544362 " fill="#0000ff"></path><path d="M -45.2254329739311,-62.247450092700305 L -45.22542958160553,-32.85818662544362 L -27.950853405416836,-38.4710382122899 L -17.2745793656517,-53.165670082369715 " fill="#0000ff"></path><path d="M -0.000004660469933526201,-76.94208449992459 L -17.2745793656517,-53.165670082369715 L -0.0000013422575975141626,-47.552821202030486 L 17.27457181782039,-53.16567070664944 " fill="#0000ff"></path><path d="M 45.22542506456375,-62.24745416641235 L 17.27457181782039,-53.16567070664944 L 27.950845216258532,-38.47104161340268 L 45.22542506456375,-32.85819103788046 " fill="#0000ff"></path><path d="M 73.17627556456694,-23.776410254038694 L 45.22542506456375,-32.85819103788046 L 45.22542506456375,-14.694627565702348 L 55.9017003659342,0.0000033103160284042588 " fill="#0000ff"></path><path d="M 73.17627692320343,23.776415858989026 L 55.9017003659342,0.0000033103160284042588 L 45.22542577874776,14.694634986795492 L 45.22542682703399,32.85819829506832 " fill="#0000ff"></path></g><path d="M25,-76.94208526611328L65.4508501291275,-47.552823066711426L80.90170100000637,0.000002558634037086449L65.4508528464005,47.552829159344014L25.000004199993015,76.94209384838882L-24.999996239723174,76.94209673407326L-65.45084842075129,47.55283661078049L-80.90170217195892,0.000011458965673227794L-65.45085662692233,-47.552816451664704L-25.000009320939867,-76.94208373373591Z" fill="none" stroke-linejoin="miter" stroke="#000000" stroke-width="1.5" id="shape1_outline"></path><g id="shape1_knot_shadow"><path d="M 49.2705100774765,-59.30852794647217 L 49.2705100774765,-16.00895548678433 L 55.90170017174117,-6.8819062160128315 L 50.90170023911976,0.0000034606524295099916 L 41.180340051651,-13.380299644620365 L 41.180340051651,-56.67987215272561 " fill="#000000" stroke="#000000" stroke-width="0.5"></path><path d="M 74.72136173856401,19.02113319891803 L 60.90170049274863,0.0000031599796308512396 L 55.90170056012722,6.88191283664489 L 71.63119210784285,28.531698519060022 " fill="#000000" stroke="#000000" stroke-width="0.5"></path><path d="M 74.72136065165482,-19.021127691504148 L 49.27051088885949,16.008962632938463 L 49.270511539965334,27.290616363889654 L 41.18034162316068,29.919272122213187 L 41.18034066863602,13.380307340652529 L 66.6311904598904,-21.649783022960598 " fill="#000000" stroke="#000000" stroke-width="0.5"></path><path d="M 49.2705133878375,59.308535034961935 L 49.270512030907284,35.79712446792346 L 41.180342114102636,38.425780226247 L 41.180343658556005,65.18638797277089 " fill="#000000" stroke="#000000" stroke-width="0.5"></path><path d="M 71.63119210784285,28.531698519060022 L 30.4508517312919,41.91200325600903 L 23.81966266721188,51.039053324307844 L 15.729492584468305,48.4103980282744 L 25.45085126168084,35.03009375382229 L 66.63119168427949,21.649789001911483 " fill="#000000" stroke="#000000" stroke-width="0.5"></path><path d="M 5.000004024106538,76.9420950026626 L 18.81966312297655,57.92096330164587 L 10.729493040232978,55.29230800561243 L -4.999996063836697,76.94209557979948 " fill="#000000" stroke="#000000" stroke-width="0.5"></path><path d="M 41.180343658556005,65.18638797277089 L 0.0000024373477458539128,51.80608558895707 L -10.729487614118518,55.29230919567196 L -15.729487970303285,48.4103997712621 L 0.0000019003580788989893,43.29957729548296 L 41.18034316761404,56.67987969425858 " fill="#000000" stroke="#000000" stroke-width="0.5"></path><path d="M -41.18033711213442,65.18639268475614 L -18.819657393443244,57.92096542553248 L -23.819657749628018,51.039056001122624 L -49.27050754834004,59.3085406600976 " fill="#000000" stroke="#000000" stroke-width="0.5"></path><path d="M -4.999996063836697,76.94209557979948 L -30.450847982641523,41.91200653937975 L -41.1803386565878,38.42578478424846 L -41.18033914752976,29.919276620367445 L -25.450848364309355,35.03009638171512 L 0.0000035829545215193548,70.06018546130537 " fill="#000000" stroke="#000000" stroke-width="0.5"></path><path d="M -71.63118992123434,28.53170655005456 L -49.27050890527027,35.79712995050513 L -49.27050939621223,27.29062178662412 L -74.72136067147586,19.0211415196916 " fill="#000000" stroke="#000000" stroke-width="0.5"></path><path d="M -49.27050754834004,59.3085406600976 L -49.27051004731809,16.008967819619293 L -55.90170072665527,6.881918851292019 L -50.90170114724263,0.000008825536568224379 L -41.18034010205444,13.380311487424521 L -41.18033760307639,56.67988437632023 " fill="#000000" stroke="#000000" stroke-width="0.5"></path><path d="M -74.72136395394429,-19.021119705286477 L -60.90170148881474,0.000009703346279366087 L -55.90170190940209,-6.8819003224091695 L -71.63119484493697,-28.531685287412554 " fill="#000000" stroke="#000000" stroke-width="0.5"></path><path d="M -74.72136067147586,19.0211415196916 L -49.27051270657326,-16.008950581679375 L -49.27051400878496,-27.290604411845074 L -41.18034417254217,-29.9192606601994 L -41.18034226349285,-13.380295733189723 L -66.63119025685447,21.649796407351737 " fill="#000000" stroke="#000000" stroke-width="0.5"></path><path d="M -49.27051770452934,-59.30852336449318 L -49.27051499066888,-35.797112590687846 L -41.18034515442609,-38.42576883904216 L -41.18034824333286,-65.18637682090743 " fill="#000000" stroke="#000000" stroke-width="0.5"></path><path d="M -71.63119484493697,-28.531685287412554 L -30.450854785511012,-41.91199254890246 L -23.81966526891628,-51.0390427205404 L -15.729493374594076,-48.41038735209648 L -25.450852025322718,-35.030083875677306 L -66.6311939802216,-21.649775998310744 " fill="#000000" stroke="#000000" stroke-width="0.5"></path><path d="M -5.0000055925639195,-76.94208434668687 L -18.819665356709347,-57.92095281264296 L -10.729493462387143,-55.292297444199036 L 4.9999962716240525,-76.94208465316234 " fill="#000000" stroke="#000000" stroke-width="0.5"></path><path d="M -41.18034824333286,-65.18637682090743 L -0.0000014956332066162759,-51.8060752690092 L 10.729486005648157,-55.292297362505515 L 15.729486181384477,-48.41038779475668 L -0.0000011888820168337588,-43.29956713505178 L -41.180347261448915,-56.679868467586154 " fill="#000000" stroke="#000000" stroke-width="0.5"></path><path d="M 41.180340051651,-65.18638038635254 L 18.819657454256316,-57.920953618542214 L 23.81965762999263,-51.03904405079338 L 49.2705100774765,-59.30852794647217 " fill="#000000" stroke="#000000" stroke-width="0.5"></path><path d="M 4.9999962716240525,-76.94208465316234 L 30.450846356979998,-41.911996142423625 L 41.180340051651,-38.425772721186284 L 41.180340051651,-29.91926463211427 L 25.450844075537077,-35.03008708438175 L -0.000004449556277208444,-70.06017344760332 " fill="#000000" stroke="#000000" stroke-width="0.5"></path><path d="M 71.63119047747905,-28.53169281657324 L 49.2705100774765,-35.797117443646655 L 49.2705100774765,-27.290609354574638 L 74.72136065165482,-19.021127691504148 " fill="#000000" stroke="#000000" stroke-width="0.5"></path></g><g id="shape1_knot_fill"><path d="M 49.2705100774765,-59.30852794647217 L 49.2705100774765,-16.00895548678433 L 55.90170017174117,-6.8819062160128315 L 50.90170023911976,0.0000034606524295099916 L 41.180340051651,-13.380299644620365 L 41.180340051651,-56.67987215272561 " fill="#ffffff" stroke="#ffffff" stroke-width="0.5"></path><path d="M 74.72136173856401,19.02113319891803 L 60.90170049274863,0.0000031599796308512396 L 55.90170056012722,6.88191283664489 L 71.63119210784285,28.531698519060022 " fill="#ffffff" stroke="#ffffff" stroke-width="0.5"></path><path d="M 74.72136065165482,-19.021127691504148 L 49.27051088885949,16.008962632938463 L 49.270511539965334,27.290616363889654 L 41.18034162316068,29.919272122213187 L 41.18034066863602,13.380307340652529 L 66.6311904598904,-21.649783022960598 " fill="#ffffff" stroke="#ffffff" stroke-width="0.5"></path><path d="M 49.2705133878375,59.308535034961935 L 49.270512030907284,35.79712446792346 L 41.180342114102636,38.425780226247 L 41.180343658556005,65.18638797277089 " fill="#ffffff" stroke="#ffffff" stroke-width="0.5"></path><path d="M 71.63119210784285,28.531698519060022 L 30.4508517312919,41.91200325600903 L 23.81966266721188,51.039053324307844 L 15.729492584468305,48.4103980282744 L 25.45085126168084,35.03009375382229 L 66.63119168427949,21.649789001911483 " fill="#ffffff" stroke="#ffffff" stroke-width="0.5"></path><path d="M 5.000004024106538,76.9420950026626 L 18.81966312297655,57.92096330164587 L 10.729493040232978,55.29230800561243 L -4.999996063836697,76.94209557979948 " fill="#ffffff" stroke="#ffffff" stroke-width="0.5"></path><path d="M 41.180343658556005,65.18638797277089 L 0.0000024373477458539128,51.80608558895707 L -10.729487614118518,55.29230919567196 L -15.729487970303285,48.4103997712621 L 0.0000019003580788989893,43.29957729548296 L 41.18034316761404,56.67987969425858 " fill="#ffffff" stroke="#ffffff" stroke-width="0.5"></path><path d="M -41.18033711213442,65.18639268475614 L -18.819657393443244,57.92096542553248 L -23.819657749628018,51.039056001122624 L -49.27050754834004,59.3085406600976 " fill="#ffffff" stroke="#ffffff" stroke-width="0.5"></path><path d="M -4.999996063836697,76.94209557979948 L -30.450847982641523,41.91200653937975 L -41.1803386565878,38.42578478424846 L -41.18033914752976,29.919276620367445 L -25.450848364309355,35.03009638171512 L 0.0000035829545215193548,70.06018546130537 " fill="#ffffff" stroke="#ffffff" stroke-width="0.5"></path><path d="M -71.63118992123434,28.53170655005456 L -49.27050890527027,35.79712995050513 L -49.27050939621223,27.29062178662412 L -74.72136067147586,19.0211415196916 " fill="#ffffff" stroke="#ffffff" stroke-width="0.5"></path><path d="M -49.27050754834004,59.3085406600976 L -49.27051004731809,16.008967819619293 L -55.90170072665527,6.881918851292019 L -50.90170114724263,0.000008825536568224379 L -41.18034010205444,13.380311487424521 L -41.18033760307639,56.67988437632023 " fill="#ffffff" stroke="#ffffff" stroke-width="0.5"></path><path d="M -74.72136395394429,-19.021119705286477 L -60.90170148881474,0.000009703346279366087 L -55.90170190940209,-6.8819003224091695 L -71.63119484493697,-28.531685287412554 " fill="#ffffff" stroke="#ffffff" stroke-width="0.5"></path><path d="M -74.72136067147586,19.0211415196916 L -49.27051270657326,-16.008950581679375 L -49.27051400878496,-27.290604411845074 L -41.18034417254217,-29.9192606601994 L -41.18034226349285,-13.380295733189723 L -66.63119025685447,21.649796407351737 " fill="#ffffff" stroke="#ffffff" stroke-width="0.5"></path><path d="M -49.27051770452934,-59.30852336449318 L -49.27051499066888,-35.797112590687846 L -41.18034515442609,-38.42576883904216 L -41.18034824333286,-65.18637682090743 " fill="#ffffff" stroke="#ffffff" stroke-width="0.5"></path><path d="M -71.63119484493697,-28.531685287412554 L -30.450854785511012,-41.91199254890246 L -23.81966526891628,-51.0390427205404 L -15.729493374594076,-48.41038735209648 L -25.450852025322718,-35.030083875677306 L -66.6311939802216,-21.649775998310744 " fill="#ffffff" stroke="#ffffff" stroke-width="0.5"></path><path d="M -5.0000055925639195,-76.94208434668687 L -18.819665356709347,-57.92095281264296 L -10.729493462387143,-55.292297444199036 L 4.9999962716240525,-76.94208465316234 " fill="#ffffff" stroke="#ffffff" stroke-width="0.5"></path><path d="M -41.18034824333286,-65.18637682090743 L -0.0000014956332066162759,-51.8060752690092 L 10.729486005648157,-55.292297362505515 L 15.729486181384477,-48.41038779475668 L -0.0000011888820168337588,-43.29956713505178 L -41.180347261448915,-56.679868467586154 " fill="#ffffff" stroke="#ffffff" stroke-width="0.5"></path><path d="M 41.180340051651,-65.18638038635254 L 18.819657454256316,-57.920953618542214 L 23.81965762999263,-51.03904405079338 L 49.2705100774765,-59.30852794647217 " fill="#ffffff" stroke="#ffffff" stroke-width="0.5"></path><path d="M 4.9999962716240525,-76.94208465316234 L 30.450846356979998,-41.911996142423625 L 41.180340051651,-38.425772721186284 L 41.180340051651,-29.91926463211427 L 25.450844075537077,-35.03008708438175 L -0.000004449556277208444,-70.06017344760332 " fill="#ffffff" stroke="#ffffff" stroke-width="0.5"></path><path d="M 71.63119047747905,-28.53169281657324 L 49.2705100774765,-35.797117443646655 L 49.2705100774765,-27.290609354574638 L 74.72136065165482,-19.021127691504148 " fill="#ffffff" stroke="#ffffff" stroke-width="0.5"></path></g><g id="shape1_knot_lines"><path d="M 49.2705100774765,-59.30852794647217 L 49.2705100774765,-16.00895548678433 L 55.90170017174117,-6.8819062160128315 " fill="none" stroke="#2020a0" stroke-width="1.5"></path><path d="M 41.180340051651,-56.67987215272561 L 41.180340051651,-13.380299644620365 L 50.90170023911976,0.0000034606524295099916 " fill="none" stroke="#2020a0" stroke-width="1.5"></path><path d="M 74.72136173856401,19.02113319891803 L 60.90170049274863,0.0000031599796308512396 " fill="none" stroke="#2020a0" stroke-width="1.5"></path><path d="M 71.63119210784285,28.531698519060022 L 55.90170056012722,6.88191283664489 " fill="none" stroke="#2020a0" stroke-width="1.5"></path><path d="M 74.72136065165482,-19.021127691504148 L 49.27051088885949,16.008962632938463 L 49.270511539965334,27.290616363889654 " fill="none" stroke="#2020a0" stroke-width="1.5"></path><path d="M 66.6311904598904,-21.649783022960598 L 41.18034066863602,13.380307340652529 L 41.18034162316068,29.919272122213187 " fill="none" stroke="#2020a0" stroke-width="1.5"></path><path d="M 49.2705133878375,59.308535034961935 L 49.270512030907284,35.79712446792346 " fill="none" stroke="#2020a0" stroke-width="1.5"></path><path d="M 41.180343658556005,65.18638797277089 L 41.180342114102636,38.425780226247 " fill="none" stroke="#2020a0" stroke-width="1.5"></path><path d="M 71.63119210784285,28.531698519060022 L 30.4508517312919,41.91200325600903 L 23.81966266721188,51.039053324307844 " fill="none" stroke="#2020a0" stroke-width="1.5"></path><path d="M 66.63119168427949,21.649789001911483 L 25.45085126168084,35.03009375382229 L 15.729492584468305,48.4103980282744 " fill="none" stroke="#2020a0" stroke-width="1.5"></path><path d="M 5.000004024106538,76.9420950026626 L 18.81966312297655,57.92096330164587 " fill="none" stroke="#2020a0" stroke-width="1.5"></path><path d="M -4.999996063836697,76.94209557979948 L 10.729493040232978,55.29230800561243 " fill="none" stroke="#2020a0" stroke-width="1.5"></path><path d="M 41.180343658556005,65.18638797277089 L 0.0000024373477458539128,51.80608558895707 L -10.729487614118518,55.29230919567196 " fill="none" stroke="#2020a0" stroke-width="1.5"></path><path d="M 41.18034316761404,56.67987969425858 L 0.0000019003580788989893,43.29957729548296 L -15.729487970303285,48.4103997712621 " fill="none" stroke="#2020a0" stroke-width="1.5"></path><path d="M -41.18033711213442,65.18639268475614 L -18.819657393443244,57.92096542553248 " fill="none" stroke="#2020a0" stroke-width="1.5"></path><path d="M -49.27050754834004,59.3085406600976 L -23.819657749628018,51.039056001122624 " fill="none" stroke="#2020a0" stroke-width="1.5"></path><path d="M -4.999996063836697,76.94209557979948 L -30.450847982641523,41.91200653937975 L -41.1803386565878,38.42578478424846 " fill="none" stroke="#2020a0" stroke-width="1.5"></path><path d="M 0.0000035829545215193548,70.06018546130537 L -25.450848364309355,35.03009638171512 L -41.18033914752976,29.919276620367445 " fill="none" stroke="#2020a0" stroke-width="1.5"></path><path d="M -71.63118992123434,28.53170655005456 L -49.27050890527027,35.79712995050513 " fill="none" stroke="#2020a0" stroke-width="1.5"></path><path d="M -74.72136067147586,19.0211415196916 L -49.27050939621223,27.29062178662412 " fill="none" stroke="#2020a0" stroke-width="1.5"></path><path d="M -49.27050754834004,59.3085406600976 L -49.27051004731809,16.008967819619293 L -55.90170072665527,6.881918851292019 " fill="none" stroke="#2020a0" stroke-width="1.5"></path><path d="M -41.18033760307639,56.67988437632023 L -41.18034010205444,13.380311487424521 L -50.90170114724263,0.000008825536568224379 " fill="none" stroke="#2020a0" stroke-width="1.5"></path><path d="M -74.72136395394429,-19.021119705286477 L -60.90170148881474,0.000009703346279366087 " fill="none" stroke="#2020a0" stroke-width="1.5"></path><path d="M -71.63119484493697,-28.531685287412554 L -55.90170190940209,-6.8819003224091695 " fill="none" stroke="#2020a0" stroke-width="1.5"></path><path d="M -74.72136067147586,19.0211415196916 L -49.27051270657326,-16.008950581679375 L -49.27051400878496,-27.290604411845074 " fill="none" stroke="#2020a0" stroke-width="1.5"></path><path d="M -66.63119025685447,21.649796407351737 L -41.18034226349285,-13.380295733189723 L -41.18034417254217,-29.9192606601994 " fill="none" stroke="#2020a0" stroke-width="1.5"></path><path d="M -49.27051770452934,-59.30852336449318 L -49.27051499066888,-35.797112590687846 " fill="none" stroke="#2020a0" stroke-width="1.5"></path><path d="M -41.18034824333286,-65.18637682090743 L -41.18034515442609,-38.42576883904216 " fill="none" stroke="#2020a0" stroke-width="1.5"></path><path d="M -71.63119484493697,-28.531685287412554 L -30.450854785511012,-41.91199254890246 L -23.81966526891628,-51.0390427205404 " fill="none" stroke="#2020a0" stroke-width="1.5"></path><path d="M -66.6311939802216,-21.649775998310744 L -25.450852025322718,-35.030083875677306 L -15.729493374594076,-48.41038735209648 " fill="none" stroke="#2020a0" stroke-width="1.5"></path><path d="M -5.0000055925639195,-76.94208434668687 L -18.819665356709347,-57.92095281264296 " fill="none" stroke="#2020a0" stroke-width="1.5"></path><path d="M 4.9999962716240525,-76.94208465316234 L -10.729493462387143,-55.292297444199036 " fill="none" stroke="#2020a0" stroke-width="1.5"></path><path d="M -41.18034824333286,-65.18637682090743 L -0.0000014956332066162759,-51.8060752690092 L 10.729486005648157,-55.292297362505515 " fill="none" stroke="#2020a0" stroke-width="1.5"></path><path d="M -41.180347261448915,-56.679868467586154 L -0.0000011888820168337588,-43.29956713505178 L 15.729486181384477,-48.41038779475668 " fill="none" stroke="#2020a0" stroke-width="1.5"></path><path d="M 41.180340051651,-65.18638038635254 L 18.819657454256316,-57.920953618542214 " fill="none" stroke="#2020a0" stroke-width="1.5"></path><path d="M 49.2705100774765,-59.30852794647217 L 23.81965762999263,-51.03904405079338 " fill="none" stroke="#2020a0" stroke-width="1.5"></path><path d="M 4.9999962716240525,-76.94208465316234 L 30.450846356979998,-41.911996142423625 L 41.180340051651,-38.425772721186284 " fill="none" stroke="#2020a0" stroke-width="1.5"></path><path d="M -0.000004449556277208444,-70.06017344760332 L 25.450844075537077,-35.03008708438175 L 41.180340051651,-29.91926463211427 " fill="none" stroke="#2020a0" stroke-width="1.5"></path><path d="M 71.63119047747905,-28.53169281657324 L 49.2705100774765,-35.797117443646655 " fill="none" stroke="#2020a0" stroke-width="1.5"></path><path d="M 74.72136065165482,-19.021127691504148 L 49.2705100774765,-27.290609354574638 " fill="none" stroke="#2020a0" stroke-width="1.5"></path></g><path d="M52.95085144042969,-38.47104263305664L37.500001311302185,9.08178436756134L-2.950849168395912,38.47104821895604L-52.95085059891701,38.47104934938612L-37.50000110283708,-9.08177936106042L2.9508498697267598,-38.47104496783153Z" fill="#40ffa0" stroke="#40ffa0" stroke-width="0.5" id="shape2_fill"></path><g id="shape2_inner_polygons"><path d="M 45.225426375865936,-14.69462913274765 L 17.274575407003002,-5.612847497919919 L 17.274576071453136,23.77641629325869 L -10.676274833081216,14.694634293169905 L -27.95084988365646,38.47104878417108 L -45.225425850877045,14.69463499416285 L -17.274574287654843,5.612852467571859 L -17.27457561655516,-23.776412164445976 L 10.676274420414707,-14.694631144890177 L 27.950850655078224,-38.471043800444086 L 45.225426375865936,-14.69462913274765 " fill="#00ff00"></path></g><path d="M52.95085144042969,-38.47104263305664L37.500001311302185,9.08178436756134L-2.950849168395912,38.47104821895604L-52.95085059891701,38.47104934938612L-37.50000110283708,-9.08177936106042L2.9508498697267598,-38.47104496783153Z" fill="none" stroke-linejoin="miter" stroke="#000000" stroke-width="1.5" id="shape2_outline"></path><g id="shape2_knot_shadow"><path d="M 38.68034108189937,-16.821256261732422 L 13.229490226143163,-8.551773871016168 L 13.229491023483327,26.71534267839816 L 21.319661119422946,20.83748990811922 L 21.319660587862835,-2.6739211248236643 L 43.680341362953186,-9.939346432685852 " fill="#000000" stroke="#000000" stroke-width="0.5"></path><path d="M 13.229490831163071,18.208834231320044 L -12.221359966018284,9.939351508012676 L -32.95085002670857,38.47104889721409 L -22.95084974060435,38.471048671128074 L -9.131189700144148,19.449917078327132 L 13.229491023483327,26.71534267839816 " fill="#000000" stroke="#000000" stroke-width="0.5"></path><path d="M -27.95085003924682,31.5891388178728 L -43.68034090126905,9.939352123118198 L -46.77051080048504,19.449917865207503 L -32.95085002670857,38.47104889721409 " fill="#000000" stroke="#000000" stroke-width="0.5"></path><path d="M -38.68034032157276,16.821262036016094 L -13.229488924618394,8.551778833298313 L -13.229490519298778,-26.715338725123086 L -21.319660713811544,-20.837485603768865 L -21.31965965069129,2.6739261018454057 L -43.68034090126905,9.939352123118198 " fill="#000000" stroke="#000000" stroke-width="0.5"></path><path d="M -13.229490134658256,-18.20883003467018 L 12.22135933055229,-9.93934838030191 L 32.950850812148516,-38.4710435669666 L 22.95085049800793,-38.47104403392157 L 9.131189510277117,-19.449913909478447 L -13.229490519298778,-26.715338725123086 " fill="#000000" stroke="#000000" stroke-width="0.5"></path><path d="M 27.95085033372402,-31.58913381485143 L 43.680341362953186,-9.939346432685852 L 46.77051138877869,-19.44991183280945 L 32.950850812148516,-38.4710435669666 " fill="#000000" stroke="#000000" stroke-width="0.5"></path></g><g id="shape2_knot_fill"><path d="M 38.68034108189937,-16.821256261732422 L 13.229490226143163,-8.551773871016168 L 13.229491023483327,26.71534267839816 L 21.319661119422946,20.83748990811922 L 21.319660587862835,-2.6739211248236643 L 43.680341362953186,-9.939346432685852 " fill="#ffffff" stroke="#ffffff" stroke-width="0.5"></path><path d="M 13.229490831163071,18.208834231320044 L -12.221359966018284,9.939351508012676 L -32.95085002670857,38.47104889721409 L -22.95084974060435,38.471048671128074 L -9.131189700144148,19.449917078327132 L 13.229491023483327,26.71534267839816 " fill="#ffffff" stroke="#ffffff" stroke-width="0.5"></path><path d="M -27.95085003924682,31.5891388178728 L -43.68034090126905,9.939352123118198 L -46.77051080048504,19.449917865207503 L -32.95085002670857,38.47104889721409 " fill="#ffffff" stroke="#ffffff" stroke-width="0.5"></path><path d="M -38.68034032157276,16.821262036016094 L -13.229488924618394,8.551778833298313 L -13.229490519298778,-26.715338725123086 L -21.319660713811544,-20.837485603768865 L -21.31965965069129,2.6739261018454057 L -43.68034090126905,9.939352123118198 " fill="#ffffff" stroke="#ffffff" stroke-width="0.5"></path><path d="M -13.229490134658256,-18.20883003467018 L 12.22135933055229,-9.93934838030191 L 32.950850812148516,-38.4710435669666 L 22.95085049800793,-38.47104403392157 L 9.131189510277117,-19.449913909478447 L -13.229490519298778,-26.715338725123086 " fill="#ffffff" stroke="#ffffff" stroke-width="0.5"></path><path d="M 27.95085033372402,-31.58913381485143 L 43.680341362953186,-9.939346432685852 L 46.77051138877869,-19.44991183280945 L 32.950850812148516,-38.4710435669666 " fill="#ffffff" stroke="#ffffff" stroke-width="0.5"></path></g><g id="shape2_knot_lines"><path d="M 38.68034108189937,-16.821256261732422 L 13.229490226143163,-8.551773871016168 L 13.229491023483327,26.71534267839816 " fill="none" stroke="#2020a0" stroke-width="1.5"></path><path d="M 43.680341362953186,-9.939346432685852 L 21.319660587862835,-2.6739211248236643 L 21.319661119422946,20.83748990811922 " fill="none" stroke="#2020a0" stroke-width="1.5"></path><path d="M 13.229490831163071,18.208834231320044 L -12.221359966018284,9.939351508012676 L -32.95085002670857,38.47104889721409 " fill="none" stroke="#2020a0" stroke-width="1.5"></path><path d="M 13.229491023483327,26.71534267839816 L -9.131189700144148,19.449917078327132 L -22.95084974060435,38.471048671128074 " fill="none" stroke="#2020a0" stroke-width="1.5"></path><path d="M -27.95085003924682,31.5891388178728 L -43.68034090126905,9.939352123118198 " fill="none" stroke="#2020a0" stroke-width="1.5"></path><path d="M -32.95085002670857,38.47104889721409 L -46.77051080048504,19.449917865207503 " fill="none" stroke="#2020a0" stroke-width="1.5"></path><path d="M -38.68034032157276,16.821262036016094 L -13.229488924618394,8.551778833298313 L -13.229490519298778,-26.715338725123086 " fill="none" stroke="#2020a0" stroke-width="1.5"></path><path d="M -43.68034090126905,9.939352123118198 L -21.31965965069129,2.6739261018454057 L -21.319660713811544,-20.837485603768865 " fill="none" stroke="#2020a0" stroke-width="1.5"></path><path d="M -13.229490134658256,-18.20883003467018 L 12.22135933055229,-9.93934838030191 L 32.950850812148516,-38.4710435669666 " fill="none" stroke="#2020a0" stroke-width="1.5"></path><path d="M -13.229490519298778,-26.715338725123086 L 9.131189510277117,-19.449913909478447 L 22.95085049800793,-38.47104403392157 " fill="none" stroke="#2020a0" stroke-width="1.5"></path><path d="M 27.95085033372402,-31.58913381485143 L 43.680341362953186,-9.939346432685852 " fill="none" stroke="#2020a0" stroke-width="1.5"></path><path d="M 32.950850812148516,-38.4710435669666 L 46.77051138877869,-19.44991183280945 " fill="none" stroke="#2020a0" stroke-width="1.5"></path></g><path d="M52.95084762573242,-9.081780433654785L37.49999749660492,38.471046566963196L-2.950854224153943,9.081782438848151L-52.95085682136643,9.081781814023817L-37.50000529541284,-38.47104746360874L2.950848159272624,-9.081781303396891Z" fill="#ff80ff" stroke="#ff80ff" stroke-width="0.5" id="shape3_fill"></path><g id="shape3_inner_polygons"><path d="M -45.22543105838963,-14.694632824792462 L -27.950855522760186,9.081782126435984 L -17.27457902203152,-5.612851797645746 L -17.27457856807011,-23.776414383502818 " fill="#0000ff"></path><path d="M 45.22542256116867,14.694633066654205 L 17.274571636225488,23.776414502905673 L 17.27457186320619,5.612852255317396 L 27.950847892502523,-9.081780868525838 " fill="#0000ff"></path></g><path d="M52.95084762573242,-9.081780433654785L37.49999749660492,38.471046566963196L-2.950854224153943,9.081782438848151L-52.95085682136643,9.081781814023817L-37.50000529541284,-38.47104746360874L2.950848159272624,-9.081781303396891Z" fill="none" stroke-linejoin="miter" stroke="#000000" stroke-width="1.5" id="shape3_outline"></path><g id="shape3_knot_shadow"><path d="M 38.680337267202106,12.568005937669433 L 13.229486464149604,20.83748809009417 L 21.319656808301374,26.715340915717178 L 43.68033754825592,19.449915766716003 " fill="#000000" stroke="#000000" stroke-width="0.5"></path><path d="M 21.31965691460284,18.208832270149664 L 21.319657055583853,6.927179729482869 L 32.9508478391485,-9.081780781551629 L 22.950847945856545,-9.081780955500049 L 13.229486670828528,4.298524781151919 L 13.229486464149604,20.83748809009417 " fill="#000000" stroke="#000000" stroke-width="0.5"></path><path d="M -27.95085543676049,2.1998719995564073 L -43.680345905794276,-19.449915752555718 L -46.770516210984994,-9.939349897029206 L -32.95085578248143,9.08178206395355 " fill="#000000" stroke="#000000" stroke-width="0.5"></path><path d="M -38.680345451018894,-12.568005503551067 L -13.229493222601562,-20.837487767481633 L -21.31966391353865,-26.715340999524003 L -43.680345905794276,-19.449915752555718 " fill="#000000" stroke="#000000" stroke-width="0.5"></path><path d="M -21.319664126141596,-18.20883191209228 L -21.31966440810362,-6.927179425171779 L -32.95085578248143,9.08178206395355 L -22.95085526303894,9.081782188918417 L -13.229493635959416,-4.2985241701197126 L -13.229493222601562,-20.837487767481633 " fill="#000000" stroke="#000000" stroke-width="0.5"></path><path d="M 27.950847772792788,-2.1998711725574136 L 43.68033754825592,19.449915766716003 L 46.77050757408142,9.939350366592407 L 32.9508478391485,-9.081780781551629 " fill="#000000" stroke="#000000" stroke-width="0.5"></path></g><g id="shape3_knot_fill"><path d="M 38.680337267202106,12.568005937669433 L 13.229486464149604,20.83748809009417 L 21.319656808301374,26.715340915717178 L 43.68033754825592,19.449915766716003 " fill="#ffffff" stroke="#ffffff" stroke-width="0.5"></path><path d="M 21.31965691460284,18.208832270149664 L 21.319657055583853,6.927179729482869 L 32.9508478391485,-9.081780781551629 L 22.950847945856545,-9.081780955500049 L 13.229486670828528,4.298524781151919 L 13.229486464149604,20.83748809009417 " fill="#ffffff" stroke="#ffffff" stroke-width="0.5"></path><path d="M -27.95085543676049,2.1998719995564073 L -43.680345905794276,-19.449915752555718 L -46.770516210984994,-9.939349897029206 L -32.95085578248143,9.08178206395355 " fill="#ffffff" stroke="#ffffff" stroke-width="0.5"></path><path d="M -38.680345451018894,-12.568005503551067 L -13.229493222601562,-20.837487767481633 L -21.31966391353865,-26.715340999524003 L -43.680345905794276,-19.449915752555718 " fill="#ffffff" stroke="#ffffff" stroke-width="0.5"></path><path d="M -21.319664126141596,-18.20883191209228 L -21.31966440810362,-6.927179425171779 L -32.95085578248143,9.08178206395355 L -22.95085526303894,9.081782188918417 L -13.229493635959416,-4.2985241701197126 L -13.229493222601562,-20.837487767481633 " fill="#ffffff" stroke="#ffffff" stroke-width="0.5"></path><path d="M 27.950847772792788,-2.1998711725574136 L 43.68033754825592,19.449915766716003 L 46.77050757408142,9.939350366592407 L 32.9508478391485,-9.081780781551629 " fill="#ffffff" stroke="#ffffff" stroke-width="0.5"></path></g><g id="shape3_knot_lines"><path d="M 38.680337267202106,12.568005937669433 L 13.229486464149604,20.83748809009417 " fill="none" stroke="#2020a0" stroke-width="1.5"></path><path d="M 43.68033754825592,19.449915766716003 L 21.319656808301374,26.715340915717178 " fill="none" stroke="#2020a0" stroke-width="1.5"></path><path d="M 21.31965691460284,18.208832270149664 L 21.319657055583853,6.927179729482869 L 32.9508478391485,-9.081780781551629 " fill="none" stroke="#2020a0" stroke-width="1.5"></path><path d="M 13.229486464149604,20.83748809009417 L 13.229486670828528,4.298524781151919 L 22.950847945856545,-9.081780955500049 " fill="none" stroke="#2020a0" stroke-width="1.5"></path><path d="M -27.95085543676049,2.1998719995564073 L -43.680345905794276,-19.449915752555718 " fill="none" stroke="#2020a0" stroke-width="1.5"></path><path d="M -32.95085578248143,9.08178206395355 L -46.770516210984994,-9.939349897029206 " fill="none" stroke="#2020a0" stroke-width="1.5"></path><path d="M -38.680345451018894,-12.568005503551067 L -13.229493222601562,-20.837487767481633 " fill="none" stroke="#2020a0" stroke-width="1.5"></path><path d="M -43.680345905794276,-19.449915752555718 L -21.31966391353865,-26.715340999524003 " fill="none" stroke="#2020a0" stroke-width="1.5"></path><path d="M -21.319664126141596,-18.20883191209228 L -21.31966440810362,-6.927179425171779 L -32.95085578248143,9.08178206395355 " fill="none" stroke="#2020a0" stroke-width="1.5"></path><path d="M -13.229493222601562,-20.837487767481633 L -13.229493635959416,-4.2985241701197126 L -22.95085526303894,9.081782188918417 " fill="none" stroke="#2020a0" stroke-width="1.5"></path><path d="M 27.950847772792788,-2.1998711725574136 L 43.68033754825592,19.449915766716003 " fill="none" stroke="#2020a0" stroke-width="1.5"></path><path d="M 32.9508478391485,-9.081780781551629 L 46.77050757408142,9.939350366592407 " fill="none" stroke="#2020a0" stroke-width="1.5"></path></g><path d="M32.725425720214844,-23.776412963867188L17.27457559108734,23.776414036750793L-32.725426918181896,23.776414036750793L-17.274576013647533,-23.776415350324108Z" fill="#0080ff" stroke="#0080ff" stroke-width="0.5" id="shape4_fill"></path><g id="shape4_inner_polygons"><path d="M 25.000000655651093,5.364418029785156e-7 L 4.774574307684112,6.571639652837544 L -7.725425663547277,23.776414036750793 L -25.000001465914714,-6.567866570605929e-7 L -4.774576760285836,-6.571639239554422 L 7.725424853283656,-23.776414157095648 " fill="#ff00ff"></path></g><path d="M32.725425720214844,-23.776412963867188L17.27457559108734,23.776414036750793L-32.725426918181896,23.776414036750793L-17.274576013647533,-23.776415350324108Z" fill="none" stroke-linejoin="miter" stroke="#000000" stroke-width="1.5" id="shape4_outline"></path><g id="shape4_knot_shadow"><path d="M -7.725425663547276,16.89450392197557 L -23.45491637546128,-4.755283595494147 L -26.545086556368148,4.755282281920833 L -12.725425914474199,23.776414036750793 " fill="#000000" stroke="#000000" stroke-width="0.5"></path><path d="M -23.45491637546128,-4.755283595494147 L -7.2745766109581815,-10.012594461708357 L 2.7254246798974187,-23.77641439574134 L 12.72542502666989,-23.776413918449954 L -2.2745769096135042,-3.1306840174004815 L -18.454915843480528,2.1266265789237186 " fill="#000000" stroke="#000000" stroke-width="0.5"></path><path d="M 7.725424524816032,-16.89450414904602 L 23.454915642738342,4.755283236503601 L 26.545085668563843,-4.755282163619995 L 12.72542502666989,-23.776413918449954 " fill="#000000" stroke="#000000" stroke-width="0.5"></path><path d="M 23.454915642738342,4.755283236503601 L 7.274574564364759,10.012594529620195 L -2.725425412620355,23.776414036750793 L -12.725425914474199,23.776414036750793 L 2.2745740510034693,3.130684776054893 L 18.454915361684527,-2.12662659254297 " fill="#000000" stroke="#000000" stroke-width="0.5"></path></g><g id="shape4_knot_fill"><path d="M -7.725425663547276,16.89450392197557 L -23.45491637546128,-4.755283595494147 L -26.545086556368148,4.755282281920833 L -12.725425914474199,23.776414036750793 " fill="#ffffff" stroke="#ffffff" stroke-width="0.5"></path><path d="M -23.45491637546128,-4.755283595494147 L -7.2745766109581815,-10.012594461708357 L 2.7254246798974187,-23.77641439574134 L 12.72542502666989,-23.776413918449954 L -2.2745769096135042,-3.1306840174004815 L -18.454915843480528,2.1266265789237186 " fill="#ffffff" stroke="#ffffff" stroke-width="0.5"></path><path d="M 7.725424524816032,-16.89450414904602 L 23.454915642738342,4.755283236503601 L 26.545085668563843,-4.755282163619995 L 12.72542502666989,-23.776413918449954 " fill="#ffffff" stroke="#ffffff" stroke-width="0.5"></path><path d="M 23.454915642738342,4.755283236503601 L 7.274574564364759,10.012594529620195 L -2.725425412620355,23.776414036750793 L -12.725425914474199,23.776414036750793 L 2.2745740510034693,3.130684776054893 L 18.454915361684527,-2.12662659254297 " fill="#ffffff" stroke="#ffffff" stroke-width="0.5"></path></g><g id="shape4_knot_lines"><path d="M -7.725425663547276,16.89450392197557 L -23.45491637546128,-4.755283595494147 " fill="none" stroke="#2020a0" stroke-width="1.5"></path><path d="M -12.725425914474199,23.776414036750793 L -26.545086556368148,4.755282281920833 " fill="none" stroke="#2020a0" stroke-width="1.5"></path><path d="M -23.45491637546128,-4.755283595494147 L -7.2745766109581815,-10.012594461708357 L 2.7254246798974187,-23.77641439574134 " fill="none" stroke="#2020a0" stroke-width="1.5"></path><path d="M -18.454915843480528,2.1266265789237186 L -2.2745769096135042,-3.1306840174004815 L 12.72542502666989,-23.776413918449954 " fill="none" stroke="#2020a0" stroke-width="1.5"></path><path d="M 7.725424524816032,-16.89450414904602 L 23.454915642738342,4.755283236503601 " fill="none" stroke="#2020a0" stroke-width="1.5"></path><path d="M 12.72542502666989,-23.776413918449954 L 26.545085668563843,-4.755282163619995 " fill="none" stroke="#2020a0" stroke-width="1.5"></path><path d="M 23.454915642738342,4.755283236503601 L 7.274574564364759,10.012594529620195 L -2.725425412620355,23.776414036750793 " fill="none" stroke="#2020a0" stroke-width="1.5"></path><path d="M 18.454915361684527,-2.12662659254297 L 2.2745740510034693,3.130684776054893 L -12.725425914474199,23.776414036750793 " fill="none" stroke="#2020a0" stroke-width="1.5"></path></g><path d="M25,-38.47104263305664L40.4508501291275,9.08178436756134L-0.0000015916313600428111,38.471048495676385L-40.4508543974859,9.081783726555429L-25.00000321863169,-38.47104689058853Z" fill="#ffff60" stroke="#ffff60" stroke-width="0.5" id="shape5_fill"></path><g id="shape5_inner_polygons"><path d="M 20.22542426874807,23.776416431618863 L -0.00000243815372868994,17.204776693054402 L -20.22542799455863,23.776416111115907 L -20.225427779511634,2.5101433529127455 L -32.725428808058794,-14.694631582016552 L -12.500003883224874,-21.26627028932451 L -0.0000016093158450303235,-38.47104476182258 L 12.499997346894824,-21.26626869418651 L 32.72542506456375,-14.69462913274765 L 20.225424002994423,2.5101459339001266 " fill="#00ffff"></path></g><path d="M25,-38.47104263305664L40.4508501291275,9.08178436756134L-0.0000015916313600428111,38.471048495676385L-40.4508543974859,9.081783726555429L-25.00000321863169,-38.47104689058853Z" fill="none" stroke-linejoin="miter" stroke="#000000" stroke-width="1.5" id="shape5_outline"></path><g id="shape5_knot_shadow"><path d="M 26.180339770597186,-12.568002003762878 L 16.180338777767805,1.1958182471678818 L 16.180339096672185,26.715342844430367 L 24.270509440823957,20.837490018807358 L 24.270509228221034,3.8244736206323733 L 34.2705100774765,-9.939346432685852 " fill="#000000" stroke="#000000" stroke-width="0.5"></path><path d="M 16.18033899037072,18.208834198862853 L -0.0000026074582066826224,12.951522332530004 L -24.270513275144083,20.837489634203813 L -16.180342713973175,26.715342588028005 L -0.0000022688492542499716,21.4580310535788 L 16.180339096672185,26.715342844430367 " fill="#000000" stroke="#000000" stroke-width="0.5"></path><path d="M -16.180342627954378,18.208833729009285 L -16.18034245591678,1.1958152781842202 L -31.180343690173373,-19.449914643730946 L -34.270513925944215,-9.939348520302158 L -24.270513103106484,3.824471427641285 L -24.270513275144083,20.837489634203813 " fill="#000000" stroke="#000000" stroke-width="0.5"></path><path d="M -26.180343016320123,-12.56800430854929 L -10.000004016143503,-17.825314969071705 L 4.999998712547324,-38.4710443360694 L -5.000001931179014,-38.471045187575776 L -15.000003750306234,-24.70722560957731 L -31.180343690173373,-19.449914643730946 " fill="#000000" stroke="#000000" stroke-width="0.5"></path><path d="M -0.0000021953148507947162,-31.58913454941199 L 9.999996816273793,-17.825313906412486 L 34.2705100774765,-9.939346432685852 L 31.180340051651,-19.44991183280945 L 14.999997877515861,-24.70722348196054 L 4.999998712547324,-38.4710443360694 " fill="#000000" stroke="#000000" stroke-width="0.5"></path></g><g id="shape5_knot_fill"><path d="M 26.180339770597186,-12.568002003762878 L 16.180338777767805,1.1958182471678818 L 16.180339096672185,26.715342844430367 L 24.270509440823957,20.837490018807358 L 24.270509228221034,3.8244736206323733 L 34.2705100774765,-9.939346432685852 " fill="#ffffff" stroke="#ffffff" stroke-width="0.5"></path><path d="M 16.18033899037072,18.208834198862853 L -0.0000026074582066826224,12.951522332530004 L -24.270513275144083,20.837489634203813 L -16.180342713973175,26.715342588028005 L -0.0000022688492542499716,21.4580310535788 L 16.180339096672185,26.715342844430367 " fill="#ffffff" stroke="#ffffff" stroke-width="0.5"></path><path d="M -16.180342627954378,18.208833729009285 L -16.18034245591678,1.1958152781842202 L -31.180343690173373,-19.449914643730946 L -34.270513925944215,-9.939348520302158 L -24.270513103106484,3.824471427641285 L -24.270513275144083,20.837489634203813 " fill="#ffffff" stroke="#ffffff" stroke-width="0.5"></path><path d="M -26.180343016320123,-12.56800430854929 L -10.000004016143503,-17.825314969071705 L 4.999998712547324,-38.4710443360694 L -5.000001931179014,-38.471045187575776 L -15.000003750306234,-24.70722560957731 L -31.180343690173373,-19.449914643730946 " fill="#ffffff" stroke="#ffffff" stroke-width="0.5"></path><path d="M -0.0000021953148507947162,-31.58913454941199 L 9.999996816273793,-17.825313906412486 L 34.2705100774765,-9.939346432685852 L 31.180340051651,-19.44991183280945 L 14.999997877515861,-24.70722348196054 L 4.999998712547324,-38.4710443360694 " fill="#ffffff" stroke="#ffffff" stroke-width="0.5"></path></g><g id="shape5_knot_lines"><path d="M 26.180339770597186,-12.568002003762878 L 16.180338777767805,1.1958182471678818 L 16.180339096672185,26.715342844430367 " fill="none" stroke="#2020a0" stroke-width="1.5"></path><path d="M 34.2705100774765,-9.939346432685852 L 24.270509228221034,3.8244736206323733 L 24.270509440823957,20.837490018807358 " fill="none" stroke="#2020a0" stroke-width="1.5"></path><path d="M 16.18033899037072,18.208834198862853 L -0.0000026074582066826224,12.951522332530004 L -24.270513275144083,20.837489634203813 " fill="none" stroke="#2020a0" stroke-width="1.5"></path><path d="M 16.180339096672185,26.715342844430367 L -0.0000022688492542499716,21.4580310535788 L -16.180342713973175,26.715342588028005 " fill="none" stroke="#2020a0" stroke-width="1.5"></path><path d="M -16.180342627954378,18.208833729009285 L -16.18034245591678,1.1958152781842202 L -31.180343690173373,-19.449914643730946 " fill="none" stroke="#2020a0" stroke-width="1.5"></path><path d="M -24.270513275144083,20.837489634203813 L -24.270513103106484,3.824471427641285 L -34.270513925944215,-9.939348520302158 " fill="none" stroke="#2020a0" stroke-width="1.5"></path><path d="M -26.180343016320123,-12.56800430854929 L -10.000004016143503,-17.825314969071705 L 4.999998712547324,-38.4710443360694 " fill="none" stroke="#2020a0" stroke-width="1.5"></path><path d="M -31.180343690173373,-19.449914643730946 L -15.000003750306234,-24.70722560957731 L -5.000001931179014,-38.471045187575776 " fill="none" stroke="#2020a0" stroke-width="1.5"></path><path d="M -0.0000021953148507947162,-31.58913454941199 L 9.999996816273793,-17.825313906412486 L 34.2705100774765,-9.939346432685852 " fill="none" stroke="#2020a0" stroke-width="1.5"></path><path d="M 4.999998712547324,-38.4710443360694 L 14.999997877515861,-24.70722348196054 L 31.180340051651,-19.44991183280945 " fill="none" stroke="#2020a0" stroke-width="1.5"></path></g></defs><g transform="translate(0,338.4710507052858) scale(1,-1)"><rect width="100%" height="100%" fill="#808080"></rect><g id="layer_shapes"><use xlink:href="#shape1_fill" transform="rotate(0 150 150) translate(150 150)"></use><use xlink:href="#shape2_fill" transform="rotate(0 268.4017034453175 159.08177980995788) translate(268.4017034453175 159.08177980995788)"></use><use xlink:href="#shape3_fill" transform="rotate(0 358.8525596167019 159.08178431053256) translate(358.8525596167019 159.08178431053256)"></use><use xlink:href="#shape4_fill" transform="rotate(0 429.07797873607586 173.77641677856445) translate(429.07797873607586 173.77641677856445)"></use><use xlink:href="#shape5_fill" transform="rotate(0 486.80340135095594 188.4710507052858) translate(486.80340135095594 188.4710507052858)"></use></g><g id="layer_inner_polygons"><use xlink:href="#shape1_inner_polygons" transform="rotate(0 150 150) translate(150 150)"></use><use xlink:href="#shape2_inner_polygons" transform="rotate(0 268.4017034453175 159.08177980995788) translate(268.4017034453175 159.08177980995788)"></use><use xlink:href="#shape3_inner_polygons" transform="rotate(0 358.8525596167019 159.08178431053256) translate(358.8525596167019 159.08178431053256)"></use><use xlink:href="#shape4_inner_polygons" transform="rotate(0 429.07797873607586 173.77641677856445) translate(429.07797873607586 173.77641677856445)"></use><use xlink:href="#shape5_inner_polygons" transform="rotate(0 486.80340135095594 188.4710507052858) translate(486.80340135095594 188.4710507052858)"></use></g><g id="layer_outlines"><use xlink:href="#shape1_outline" transform="rotate(0 150 150) translate(150 150)"></use><use xlink:href="#shape2_outline" transform="rotate(0 268.4017034453175 159.08177980995788) translate(268.4017034453175 159.08177980995788)"></use><use xlink:href="#shape3_outline" transform="rotate(0 358.8525596167019 159.08178431053256) translate(358.8525596167019 159.08178431053256)"></use><use xlink:href="#shape4_outline" transform="rotate(0 429.07797873607586 173.77641677856445) translate(429.07797873607586 173.77641677856445)"></use><use xlink:href="#shape5_outline" transform="rotate(0 486.80340135095594 188.4710507052858) translate(486.80340135095594 188.4710507052858)"></use></g><g id="layer_texture"></g><g id="layer_knot_pattern_shadow" transform="translate(-7.142857142857143,0)" opacity="1"><use xlink:href="#shape1_knot_shadow" transform="rotate(0 150 150) translate(150 150)"></use><use xlink:href="#shape2_knot_shadow" transform="rotate(0 268.4017034453175 159.08177980995788) translate(268.4017034453175 159.08177980995788)"></use><use xlink:href="#shape3_knot_shadow" transform="rotate(0 358.8525596167019 159.08178431053256) translate(358.8525596167019 159.08178431053256)"></use><use xlink:href="#shape4_knot_shadow" transform="rotate(0 429.07797873607586 173.77641677856445) translate(429.07797873607586 173.77641677856445)"></use><use xlink:href="#shape5_knot_shadow" transform="rotate(0 486.80340135095594 188.4710507052858) translate(486.80340135095594 188.4710507052858)"></use></g><g id="layer_knot_pattern_filling"><use xlink:href="#shape1_knot_fill" transform="rotate(0 150 150) translate(150 150)"></use><use xlink:href="#shape2_knot_fill" transform="rotate(0 268.4017034453175 159.08177980995788) translate(268.4017034453175 159.08177980995788)"></use><use xlink:href="#shape3_knot_fill" transform="rotate(0 358.8525596167019 159.08178431053256) translate(358.8525596167019 159.08178431053256)"></use><use xlink:href="#shape4_knot_fill" transform="rotate(0 429.07797873607586 173.77641677856445) translate(429.07797873607586 173.77641677856445)"></use><use xlink:href="#shape5_knot_fill" transform="rotate(0 486.80340135095594 188.4710507052858) translate(486.80340135095594 188.4710507052858)"></use></g><g id="layer_knot_pattern_lines"><use xlink:href="#shape1_knot_lines" transform="rotate(0 150 150) translate(150 150)"></use><use xlink:href="#shape2_knot_lines" transform="rotate(0 268.4017034453175 159.08177980995788) translate(268.4017034453175 159.08177980995788)"></use><use xlink:href="#shape3_knot_lines" transform="rotate(0 358.8525596167019 159.08178431053256) translate(358.8525596167019 159.08178431053256)"></use><use xlink:href="#shape4_knot_lines" transform="rotate(0 429.07797873607586 173.77641677856445) translate(429.07797873607586 173.77641677856445)"></use><use xlink:href="#shape5_knot_lines" transform="rotate(0 486.80340135095594 188.4710507052858) translate(486.80340135095594 188.4710507052858)"></use></g></g></svg>