<svg xmlns="http://www.w3.org/2000/svg" xmlns:xlink="http://www.w3.org/1999/xlink" viewBox="0 0 636.8034013509559 338.4710507052858" width="636.8034013509559px" height="338.4710507052858px" version="1.1"><defs><path d="M25,-76.94208526611328L65.4508501291275,-47.552823066711426L80.90170100000637,0.000002558634037086449L65.4508528464005,47.552829159344014L25.000004199993015,76.94209384838882L-24.999996239723174,76.94209673407326L-65.45084842075129,47.55283661078049L-80.90170217195892,0.000011458965673227794L-65.45085662692233,-47.552816451664704L-25.000009320939867,-76.94208373373591Z" fill="#00ffff" stroke="#00ffff" stroke-width="0.5" id="shape1_fill"></path><g id="shape1_inner_polygons"><path d="M 45.22542577874776,14.694634986795492 L 45.22542682703399,32.85819829506832 L 27.950851496486372,38.47104850491566 L 27.950851496486372,38.47104850491566 L 17.27457785372243,53.16568066496014 L 0.0000021688528946128827,47.55283144222001 L 0.0000021688528946128827,47.55283144222001 L -17.27457268187327,53.16568259839728 L -27.950848173475435,38.47105146054744 L -27.950848173475435,38.47105146054744 L -45.22542402640001,32.85820328543629 L -45.225425074686264,14.69463965352191 L -45.225425074686264,14.69463965352191 L -55.901701318028685,0.000009264441427347947 L -45.22542748503305,-14.694623157434556 L -45.22542748503305,-14.694623157434556 L -45.22542958160553,-32.85818662544362 L -27.950853405416836,-38.4710382122899 L -27.950853405416836,-38.4710382122899 L -17.2745793656517,-53.165670082369715 L -0.0000013422575975141626,-47.552821202030486 L -0.0000013422575975141626,-47.552821202030486 L 17.27457181782039,-53.16567070664944 L 27.950845216258532,-38.47104161340268 L 27.950845216258532,-38.47104161340268 L 45.22542506456375,-32.85819103788046 L 45.22542506456375,-14.694627565702348 L 45.22542506456375,-14.694627565702348 L 55.9017003659342,0.0000033103160284042588 L 45.22542577874776,14.694634986795492 " fill="#ff0000"></path><path d="M 45.225428523196754,62.24746150386642 L 45.22542682703399,32.85819829506832 L 27.950851496486372,38.47104850491566 L 17.27457785372243,53.16568066496014 " fill="#0000ff"></path><path d="M 0.000003980134920311684,76.94209529123104 L 17.27457785372243,53.16568066496014 L 0.0000021688528946128827,47.55283144222001 L -17.27457268187327,53.16568259839728 " fill="#0000ff"></path><path d="M -45.22542233023723,62.247466672426874 L -17.27457268187327,53.16568259839728 L -27.950848173475435,38.47105146054744 L -45.22542402640001,32.85820328543629 " fill="#0000ff"></path><path d="M -73.1762752963551,23.77642403487308 L -45.22542402640001,32.85820328543629 L -45.225425074686264,14.69463965352191 L -55.901701318028685,0.000009264441427347947 " fill="#0000ff"></path><path d="M -73.17627939944063,-23.776402496349515 L -55.901701318028685,0.000009264441427347947 L -45.22542748503305,-14.694623157434556 L -45.22542958160553,-32.85818662544362 " fill="#0000ff"></path><path d="M -45.2254329739311,-62.247450092700305 L -45.22542958160553,-32.85818662544362 L -27.950853405416836,-38.4710382122899 L -17.2745793656517,-53.165670082369715 " fill="#0000ff"></path><path d="M -0.000004660469933526201,-76.94208449992459 L -17.2745793656517,-53.165670082369715 L -0.0000013422575975141626,-47.552821202030486 L 17.27457181782039,-53.16567070664944 " fill="#0000ff"></path><path d="M 45.22542506456375,-62.24745416641235 L 17.27457181782039,-53.16567070664944 L 27.950845216258532,-38.47104161340268 L 45.22542506456375,-32.85819103788046 " fill="#0000ff"></path><path d="M 73.17627556456694,-23.776410254038694 L 45.22542506456375,-32.85819103788046 L 45.22542506456375,-14.694627565702348 L 55.9017003659342,0.0000033103160284042588 " fill="#0000ff"></path><path d="M 73.17627692320343,23.776415858989026 L 55.9017003659342,0.0000033103160284042588 L 45.22542577874776,14.694634986795492 L 45.22542682703399,32.85819829506832 " fill="#0000ff"></path></g><path d="M25,-76.94208526611328L65.4508501291275,-47.552823066711426L80.90170100000637,0.000002558634037086449L65.4508528464005,47.552829159344014L25.000004199993015,76.94209384838882L-24.999996239723174,76.94209673407326L-65.45084842075129,47.55283661078049L-80.90170217195892,0.000011458965673227794L-65.45085662692233,-47.552816451664704L-25.000009320939867,-76.94208373373591Z" fill="none" stroke-linejoin="miter" stroke="#000000" stroke-width="1.5" id="shape1_outline"></path><g id="shape1_texture"><path d="M 73.17627556456694,-23.776410254038694 L 45.22542577874776,14.694634986795492 L 45.225428523196754,62.24746150386642 L 0.0000021688528946128827,47.55283144222001 L -45.22542233023723,62.247466672426874 L -45.225425074686264,14.69463965352191 L -73.17627939944063,-23.776402496349515 L -27.950853405416836,-38.4710382122899 L -0.000004660469933526201,-76.94208449992459 L 27.950845216258532,-38.47104161340268 L 73.17627556456694,-23.776410254038694 L 45.22542577874776,14.694634986795492 " fill="none" stroke="#00c0ff" stroke-width="1.5"></path><path d="M 73.17627692320343,23.776415858989026 L 27.950851496486372,38.47104850491566 L 0.000003980134920311684,76.94209529123104 L -27.950848173475435,38.47105146054744 L -73.1762752963551,23.77642403487308 L -45.22542748503305,-14.694623157434556 L -45.2254329739311,-62.247450092700305 L -0.0000013422575975141626,-47.552821202030486 L 45.22542506456375,-62.24745416641235 L 45.22542506456375,-14.694627565702348 L 73.17627692320343,23.776415858989026 L 27.950851496486372,38.47104850491566 " fill="none" stroke="#00c0ff" stroke-width="1.5"></path></g><path d="M52.95085144042969,-38.47104263305664L37.500001311302185,9.08178436756134L-2.950849168395912,38.47104821895604L-52.95085059891701,38.47104934938612L-37.50000110283708,-9.08177936106042L2.9508498697267598,-38.47104496783153Z" fill="#40ffa0" stroke="#40ffa0" stroke-width="0.5" id="shape2_fill"></path><g id="shape2_inner_polygons"><path d="M 45.225426375865936,-14.69462913274765 L 17.274575407003002,-5.612847497919919 L 17.274576071453136,23.77641629325869 L -10.676274833081216,14.694634293169905 L -27.95084988365646,38.47104878417108 L -45.225425850877045,14.69463499416285 L -17.274574287654843,5.612852467571859 L -17.27457561655516,-23.776412164445976 L 10.676274420414707,-14.694631144890177 L 27.950850655078224,-38.471043800444086 L 45.225426375865936,-14.69462913274765 " fill="#00ff00"></path></g><path d="M52.95085144042969,-38.47104263305664L37.500001311302185,9.08178436756134L-2.950849168395912,38.47104821895604L-52.95085059891701,38.47104934938612L-37.50000110283708,-9.08177936106042L2.9508498697267598,-38.47104496783153Z" fill="none" stroke-linejoin="miter" stroke="#000000" stroke-width="1.5" id="shape2_outline"></path><g id="shape2_texture"><path d="M 45.225426375865936,-14.69462913274765 L 17.274575407003002,-5.612847497919919 L 17.274576071453136,23.77641629325869 L -10.676274833081216,14.694634293169905 L -27.95084988365646,38.47104878417108 L -45.225425850877045,14.69463499416285 L -17.274574287654843,5.612852467571859 L -17.27457561655516,-23.776412164445976 L 10.676274420414707,-14.694631144890177 L 27.950850655078224,-38.471043800444086 L 45.225426375865936,-14.69462913274765 Z" fill="none" stroke="#00c0ff" stroke-width="1.5"></path></g><path d="M52.95084762573242,-9.081780433654785L37.49999749660492,38.471046566963196L-2.950854224153943,9.081782438848151L-52.95085682136643,9.081781814023817L-37.50000529541284,-38.47104746360874L2.950848159272624,-9.081781303396891Z" fill="#ff80ff" stroke="#ff80ff" stroke-width="0.5" id="shape3_fill"></path><g id="shape3_inner_polygons"><path d="M -45.22543105838963,-14.694632824792462 L -27.950855522760186,9.081782126435984 L -17.27457902203152,-5.612851797645746 L -17.27457856807011,-23.776414383502818 " fill="#0000ff"></path><path d="M 45.22542256116867,14.694633066654205 L 17.274571636225488,23.776414502905673 L 17.27457186320619,5.612852255317396 L 27.950847892502523,-9.081780868525838 " fill="#0000ff"></path></g><path d="M52.95084762573242,-9.081780433654785L37.49999749660492,38.471046566963196L-2.950854224153943,9.081782438848151L-52.95085682136643,9.081781814023817L-37.50000529541284,-38.47104746360874L2.950848159272624,-9.081781303396891Z" fill="none" stroke-linejoin="miter" stroke="#000000" stroke-width="1.5" id="shape3_outline"></path><g id="shape3_texture"><path d="M -45.22543105838963,-14.694632824792462 L -27.950855522760186,9.081782126435984 L -17.27457902203152,-5.612851797645746 L -17.27457856807011,-23.776414383502818 L -45.22543105838963,-14.694632824792462 Z" fill="none" stroke="#00c0ff" stroke-width="1.5"></path><path d="M 45.22542256116867,14.694633066654205 L 17.274571636225488,23.776414502905673 L 17.27457186320619,5.612852255317396 L 27.950847892502523,-9.081780868525838 L 45.22542256116867,14.694633066654205 Z" fill="none" stroke="#00c0ff" stroke-width="1.5"></path></g><path d="M32.725425720214844,-23.776412963867188L17.27457559108734,23.776414036750793L-32.725426918181896,23.776414036750793L-17.274576013647533,-23.776415350324108Z" fill="#0080ff" stroke="#0080ff" stroke-width="0.5" id="shape4_fill"></path><g id="shape4_inner_polygons"><path d="M 25.000000655651093,5.364418029785156e-7 L 4.774574307684112,6.571639652837544 L -7.725425663547277,23.776414036750793 L -25.000001465914714,-6.567866570605929e-7 L -4.774576760285836,-6.571639239554422 L 7.725424853283656,-23.776414157095648 " fill="#ff00ff"></path></g><path d="M32.725425720214844,-23.776412963867188L17.27457559108734,23.776414036750793L-32.725426918181896,23.776414036750793L-17.274576013647533,-23.776415350324108Z" fill="none" stroke-linejoin="miter" stroke="#000000" stroke-width="1.5" id="shape4_outline"></path><g id="shape4_texture"><path d="M 25.000000655651093,5.364418029785156e-7 L 4.774574307684112,6.571639652837544 L -7.725425663547277,23.776414036750793 L -25.000001465914714,-6.567866570605929e-7 L -4.774576760285836,-6.571639239554422 L 7.725424853283656,-23.776414157095648 L 25.000000655651093,5.364418029785156e-7 Z" fill="none" stroke="#00c0ff" stroke-width="1.5"></path></g><path d="M25,-38.47104263305664L40.4508501291275,9.08178436756134L-0.0000015916313600428111,38.471048495676385L-40.4508543974859,9.081783726555429L-25.00000321863169,-38.47104689058853Z" fill="#ffff60" stroke="#ffff60" stroke-width="0.5" id="shape5_fill"></path><g id="shape5_inner_polygons"><path d="M 20.22542426874807,23.776416431618863 L -0.00000243815372868994,17.204776693054402 L -20.22542799455863,23.776416111115907 L -20.225427779511634,2.5101433529127455 L -32.725428808058794,-14.694631582016552 L -12.500003883224874,-21.26627028932451 L -0.0000016093158450303235,-38.47104476182258 L 12.499997346894824,-21.26626869418651 L 32.72542506456375,-14.69462913274765 L 20.225424002994423,2.5101459339001266 " fill="#00ffff"></path></g><path d="M25,-38.47104263305664L40.4508501291275,9.08178436756134L-0.0000015916313600428111,38.471048495676385L-40.4508543974859,9.081783726555429L-25.00000321863169,-38.47104689058853Z" fill="none" stroke-linejoin="miter" stroke="#000000" stroke-width="1.5" id="shape5_outline"></path><g id="shape5_texture"><path d="M 20.22542426874807,23.776416431618863 L -0.00000243815372868994,17.204776693054402 L -20.22542799455863,23.776416111115907 L -20.225427779511634,2.5101433529127455 L -32.725428808058794,-14.694631582016552 L -12.500003883224874,-21.26627028932451 L -0.0000016093158450303235,-38.47104476182258 L 12.499997346894824,-21.26626869418651 L 32.72542506456375,-14.69462913274765 L 20.225424002994423,2.5101459339001266 L 20.22542426874807,23.776416431618863 L -0.00000243815372868994,17.204776693054402 Z" fill="none" stroke="#00c0ff" stroke-width="1.5"></path></g></defs><g transform="translate(0,338.4710507052858) scale(1,-1)"><rect width="100%" height="100%" fill="#808080"></rect><g id="layer_shapes"><use xlink:href="#shape1_fill" transform="rotate(0 150 150) translate(150 150)"></use><use xlink:href="#shape2_fill" transform="rotate(0 268.4017034453175 159.08177980995788) translate(268.4017034453175 159.08177980995788)"></use><use xlink:href="#shape3_fill" transform="rotate(0 358.8525596167019 159.08178431053256) translate(358.8525596167019 159.08178431053256)"></use><use xlink:href="#shape4_fill" transform="rotate(0 429.07797873607586 173.77641677856445) translate(429.07797873607586 173.77641677856445)"></use><use xlink:href="#shape5_fill" transform="rotate(0 486.80340135095594 188.4710507052858) translate(486.80340135095594 188.4710507052858)"></use></g><g id="layer_inner_polygons"><use xlink:href="#shape1_inner_polygons" transform="rotate(0 150 150) translate(150 150)"></use><use xlink:href="#shape2_inner_polygons" transform="rotate(0 268.4017034453175 159.08177980995788) translate(268.4017034453175 159.08177980995788)"></use><use xlink:href="#shape3_inner_polygons" transform="rotate(0 358.8525596167019 159.08178431053256) translate(358.8525596167019 159.08178431053256)"></use><use xlink:href="#shape4_inner_polygons" transform="rotate(0 429.07797873607586 173.77641677856445) translate(429.07797873607586 173.77641677856445)"></use><use xlink:href="#shape5_inner_polygons" transform="rotate(0 486.80340135095594 188.4710507052858) translate(486.80340135095594 188.4710507052858)"></use></g><g id="layer_outlines"><use xlink:href="#shape1_outline" transform="rotate(0 150 150) translate(150 150)"></use><use xlink:href="#shape2_outline" transform="rotate(0 268.4017034453175 159.08177980995788) translate(268.4017034453175 159.08177980995788)"></use><use xlink:href="#shape3_outline" transform="rotate(0 358.8525596167019 159.08178431053256) translate(358.8525596167019 159.08178431053256)"></use><use xlink:href="#shape4_outline" transform="rotate(0 429.07797873607586 173.77641677856445) translate(429.07797873607586 173.77641677856445)"></use><use xlink:href="#shape5_outline" transform="rotate(0 486.80340135095594 188.4710507052858) translate(486.80340135095594 188.4710507052858)"></use></g><g id="layer_texture"><use xlink:href="#shape1_texture" transform="rotate(0 150 150) translate(150 150)"></use><use xlink:href="#shape2_texture" transform="rotate(0 268.4017034453175 159.08177980995788) translate(268.4017034453175 159.08177980995788)"></use><use xlink:href="#shape3_texture" transform="rotate(0 358.8525596167019 159.08178431053256) translate(358.8525596167019 159.08178431053256)"></use><use xlink:href="#shape4_texture" transform="rotate(0 429.07797873607586 173.77641677856445) translate(429.07797873607586 173.77641677856445)"></use><use xlink:href="#shape5_texture" transform="rotate(0 486.80340135095594 188.4710507052858) translate(486.80340135095594 188.4710507052858)"></use></g><g id="layer_knot_pattern_shadow"></g><g id="layer_knot_pattern_filling"></g><g id="layer_knot_pattern_lines"></g></g></svg>