<?xml version="1.0" encoding="UTF-8" standalone="no"?>
<svg width="529.167mm" height="388.056mm"
 viewBox="0 0 1500 1100"
 xmlns="http://www.w3.org/2000/svg" xmlns:xlink="http://www.w3.org/1999/xlink"  version="1.2" baseProfile="tiny">
<title>SVG Image: Mexuar1.v3</title>
<desc>Created using Tiled Pattern Maker (David Casper)</desc>
<defs>
</defs>
<g fill="none" stroke="black" stroke-width="1" fill-rule="evenodd" stroke-linecap="square" stroke-linejoin="bevel" >

<g fill="none" stroke="#000000" stroke-opacity="1" stroke-width="14.25" stroke-linecap="round" stroke-linejoin="round" transform="matrix(1,0,0,1,0,0)"
font-family="MS Shell Dlg 2" font-size="8.25" font-weight="400" font-style="normal" 
>
<polyline fill="none" vector-effect="none" points="482.347,620.793 488.68,614.46 " />
<polyline fill="none" vector-effect="none" points="482.347,791.793 488.68,785.46 " />
<polyline fill="none" vector-effect="none" points="482.347,779.127 488.68,785.46 " />
<polyline fill="none" vector-effect="none" points="482.347,869.693 482.347,791.793 " />
<polyline fill="none" vector-effect="none" points="482.347,100.827 488.047,100.827 " />
<polyline fill="none" vector-effect="none" points="572.913,869.693 482.347,869.693 " />
<polyline fill="none" vector-effect="none" points="482.347,449.793 488.68,443.46 " />
<polyline fill="none" vector-effect="none" points="488.68,614.46 482.347,608.127 " />
<polyline fill="none" vector-effect="none" points="488.68,272.46 482.347,266.127 " />
<polyline fill="none" vector-effect="none" points="545.68,357.96 482.347,357.96 " />
<polyline fill="none" vector-effect="none" points="482.347,437.127 488.68,443.46 " />
<polyline fill="none" vector-effect="none" points="482.347,107.793 488.68,101.46 " />
<polyline fill="none" vector-effect="none" points="545.68,699.96 482.347,699.96 " />
<polyline fill="none" vector-effect="none" points="482.347,278.793 488.68,272.46 " />
<polyline fill="none" vector-effect="none" points="482.347,620.793 482.347,608.127 " />
<polyline fill="none" vector-effect="none" points="482.347,791.793 482.347,779.127 " />
<polyline fill="none" vector-effect="none" points="482.347,779.127 482.347,699.96 " />
<polyline fill="none" vector-effect="none" points="482.347,449.793 482.347,437.127 " />
<polyline fill="none" vector-effect="none" points="482.347,608.127 482.347,449.793 " />
<polyline fill="none" vector-effect="none" points="482.347,266.127 482.347,107.793 " />
<polyline fill="none" vector-effect="none" points="482.347,357.96 482.347,278.793 " />
<polyline fill="none" vector-effect="none" points="482.347,437.127 482.347,357.96 " />
<polyline fill="none" vector-effect="none" points="482.347,107.793 482.347,100.827 " />
<polyline fill="none" vector-effect="none" points="482.347,699.96 482.347,620.793 " />
<polyline fill="none" vector-effect="none" points="482.347,278.793 482.347,266.127 " />
<polyline fill="none" vector-effect="none" points="488.047,100.827 489.313,100.827 " />
<polyline fill="none" vector-effect="none" points="488.047,100.827 488.68,101.46 " />
<polyline fill="none" vector-effect="none" points="488.68,101.46 517.18,129.96 " />
<polyline fill="none" vector-effect="none" points="488.68,443.46 517.18,471.96 " />
<polyline fill="none" vector-effect="none" points="488.68,785.46 517.18,756.96 " />
<polyline fill="none" vector-effect="none" points="488.68,443.46 517.18,414.96 " />
<polyline fill="none" vector-effect="none" points="488.68,272.46 517.18,300.96 " />
<polyline fill="none" vector-effect="none" points="517.18,585.96 488.68,614.46 " />
<polyline fill="none" vector-effect="none" points="488.68,785.46 517.18,813.96 " />
<polyline fill="none" vector-effect="none" points="517.18,243.96 488.68,272.46 " />
<polyline fill="none" vector-effect="none" points="488.68,101.46 489.313,100.827 " />
<polyline fill="none" vector-effect="none" points="488.68,614.46 517.18,642.96 " />
<polyline fill="none" vector-effect="none" points="489.313,100.827 716.68,100.827 " />
<polyline fill="none" vector-effect="none" points="517.18,756.96 659.68,756.96 " />
<polyline fill="none" vector-effect="none" points="517.18,471.96 545.68,471.96 " />
<polyline fill="none" vector-effect="none" points="517.18,642.96 545.68,642.96 " />
<polyline fill="none" vector-effect="none" points="545.68,243.96 517.18,243.96 " />
<polyline fill="none" vector-effect="none" points="517.18,414.96 659.68,414.96 " />
<polyline fill="none" vector-effect="none" points="517.18,300.96 545.68,300.96 " />
<polyline fill="none" vector-effect="none" points="545.68,585.96 517.18,585.96 " />
<polyline fill="none" vector-effect="none" points="517.18,129.96 545.68,129.96 " />
<polyline fill="none" vector-effect="none" points="517.18,813.96 545.68,813.96 " />
<polyline fill="none" vector-effect="none" points="545.68,129.96 545.68,158.46 " />
<polyline fill="none" vector-effect="none" points="545.68,158.46 574.18,186.96 " />
<polyline fill="none" vector-effect="none" points="545.68,300.96 545.68,357.96 " />
<polyline fill="none" vector-effect="none" points="574.18,186.96 545.68,215.46 " />
<polyline fill="none" vector-effect="none" points="545.68,215.46 545.68,243.96 " />
<polyline fill="none" vector-effect="none" points="545.68,500.46 574.18,528.96 " />
<polyline fill="none" vector-effect="none" points="574.18,528.96 545.68,557.46 " />
<polyline fill="none" vector-effect="none" points="545.68,557.46 545.68,585.96 " />
<polyline fill="none" vector-effect="none" points="545.68,471.96 545.68,500.46 " />
<polyline fill="none" vector-effect="none" points="545.68,842.46 572.913,869.693 " />
<polyline fill="none" vector-effect="none" points="545.68,813.96 545.68,842.46 " />
<polyline fill="none" vector-effect="none" points="545.68,642.96 545.68,699.96 " />
<polyline fill="none" vector-effect="none" points="575.447,869.693 572.913,869.693 " />
<polyline fill="none" vector-effect="none" points="602.68,215.46 574.18,186.96 " />
<polyline fill="none" vector-effect="none" points="574.18,528.96 602.68,500.46 " />
<polyline fill="none" vector-effect="none" points="574.18,186.96 602.68,158.46 " />
<polyline fill="none" vector-effect="none" points="602.68,557.46 574.18,528.96 " />
<polyline fill="none" vector-effect="none" points="659.68,869.693 575.447,869.693 " />
<polyline fill="none" vector-effect="none" points="575.447,869.693 602.68,842.46 " />
<polyline fill="none" vector-effect="none" points="659.68,357.96 602.68,357.96 " />
<polyline fill="none" vector-effect="none" points="602.68,357.96 602.68,215.46 " />
<polyline fill="none" vector-effect="none" points="602.68,129.96 659.68,129.96 " />
<polyline fill="none" vector-effect="none" points="602.68,158.46 602.68,129.96 " />
<polyline fill="none" vector-effect="none" points="602.68,813.96 659.68,813.96 " />
<polyline fill="none" vector-effect="none" points="602.68,471.96 659.68,471.96 " />
<polyline fill="none" vector-effect="none" points="602.68,842.46 602.68,813.96 " />
<polyline fill="none" vector-effect="none" points="602.68,500.46 602.68,471.96 " />
<polyline fill="none" vector-effect="none" points="659.68,699.96 602.68,699.96 " />
<polyline fill="none" vector-effect="none" points="602.68,699.96 602.68,557.46 " />
<polyline fill="none" vector-effect="none" points="659.68,300.96 802.18,300.96 " />
<polyline fill="none" vector-effect="none" points="716.68,357.96 659.68,357.96 " />
<polyline fill="none" vector-effect="none" points="659.68,357.96 659.68,300.96 " />
<polyline fill="none" vector-effect="none" points="659.68,243.96 716.68,243.96 " />
<polyline fill="none" vector-effect="none" points="659.68,756.96 659.68,699.96 " />
<polyline fill="none" vector-effect="none" points="743.913,869.693 659.68,869.693 " />
<polyline fill="none" vector-effect="none" points="659.68,471.96 659.68,585.96 " />
<polyline fill="none" vector-effect="none" points="659.68,585.96 716.68,585.96 " />
<polyline fill="none" vector-effect="none" points="716.68,699.96 659.68,699.96 " />
<polyline fill="none" vector-effect="none" points="659.68,414.96 659.68,357.96 " />
<polyline fill="none" vector-effect="none" points="659.68,129.96 659.68,243.96 " />
<polyline fill="none" vector-effect="none" points="659.68,699.96 659.68,642.96 " />
<polyline fill="none" vector-effect="none" points="659.68,642.96 802.18,642.96 " />
<polyline fill="none" vector-effect="none" points="659.68,813.96 659.68,869.693 " />
<polyline fill="none" vector-effect="none" points="716.68,557.46 745.18,528.96 " />
<polyline fill="none" vector-effect="none" points="716.68,500.46 716.68,357.96 " />
<polyline fill="none" vector-effect="none" points="716.68,158.46 716.68,100.827 " />
<polyline fill="none" vector-effect="none" points="716.68,243.96 716.68,215.46 " />
<polyline fill="none" vector-effect="none" points="745.18,186.96 716.68,158.46 " />
<polyline fill="none" vector-effect="none" points="716.68,842.46 716.68,699.96 " />
<polyline fill="none" vector-effect="none" points="716.68,215.46 745.18,186.96 " />
<polyline fill="none" vector-effect="none" points="745.18,528.96 716.68,500.46 " />
<polyline fill="none" vector-effect="none" points="716.68,585.96 716.68,557.46 " />
<polyline fill="none" vector-effect="none" points="716.68,100.827 830.047,100.827 " />
<polyline fill="none" vector-effect="none" points="743.913,869.693 716.68,842.46 " />
<polyline fill="none" vector-effect="none" points="746.447,869.693 743.913,869.693 " />
<polyline fill="none" vector-effect="none" points="745.18,528.96 773.68,500.46 " />
<polyline fill="none" vector-effect="none" points="773.68,215.46 745.18,186.96 " />
<polyline fill="none" vector-effect="none" points="745.18,186.96 773.68,158.46 " />
<polyline fill="none" vector-effect="none" points="773.68,557.46 745.18,528.96 " />
<polyline fill="none" vector-effect="none" points="914.913,869.693 746.447,869.693 " />
<polyline fill="none" vector-effect="none" points="746.447,869.693 773.68,842.46 " />
<polyline fill="none" vector-effect="none" points="773.68,842.46 773.68,813.96 " />
<polyline fill="none" vector-effect="none" points="773.68,813.96 802.18,813.96 " />
<polyline fill="none" vector-effect="none" points="802.18,585.96 773.68,585.96 " />
<polyline fill="none" vector-effect="none" points="773.68,414.96 802.18,414.96 " />
<polyline fill="none" vector-effect="none" points="773.68,471.96 802.18,471.96 " />
<polyline fill="none" vector-effect="none" points="773.68,756.96 802.18,756.96 " />
<polyline fill="none" vector-effect="none" points="773.68,585.96 773.68,557.46 " />
<polyline fill="none" vector-effect="none" points="773.68,500.46 773.68,471.96 " />
<polyline fill="none" vector-effect="none" points="773.68,699.96 773.68,756.96 " />
<polyline fill="none" vector-effect="none" points="887.68,699.96 773.68,699.96 " />
<polyline fill="none" vector-effect="none" points="773.68,129.96 802.18,129.96 " />
<polyline fill="none" vector-effect="none" points="773.68,357.96 773.68,414.96 " />
<polyline fill="none" vector-effect="none" points="802.18,243.96 773.68,243.96 " />
<polyline fill="none" vector-effect="none" points="773.68,158.46 773.68,129.96 " />
<polyline fill="none" vector-effect="none" points="773.68,243.96 773.68,215.46 " />
<polyline fill="none" vector-effect="none" points="887.68,357.96 773.68,357.96 " />
<polyline fill="none" vector-effect="none" points="802.18,756.96 830.68,785.46 " />
<polyline fill="none" vector-effect="none" points="802.18,642.96 830.68,614.46 " />
<polyline fill="none" vector-effect="none" points="830.68,614.46 802.18,585.96 " />
<polyline fill="none" vector-effect="none" points="802.18,471.96 830.68,443.46 " />
<polyline fill="none" vector-effect="none" points="802.18,813.96 830.68,785.46 " />
<polyline fill="none" vector-effect="none" points="802.18,129.96 830.68,101.46 " />
<polyline fill="none" vector-effect="none" points="802.18,414.96 830.68,443.46 " />
<polyline fill="none" vector-effect="none" points="802.18,300.96 830.68,272.46 " />
<polyline fill="none" vector-effect="none" points="830.68,272.46 802.18,243.96 " />
<polyline fill="none" vector-effect="none" points="830.047,100.827 830.68,101.46 " />
<polyline fill="none" vector-effect="none" points="830.047,100.827 1058.68,100.827 " />
<polyline fill="none" vector-effect="none" points="830.68,443.46 859.18,471.96 " />
<polyline fill="none" vector-effect="none" points="830.68,785.46 859.18,756.96 " />
<polyline fill="none" vector-effect="none" points="830.68,614.46 859.18,642.96 " />
<polyline fill="none" vector-effect="none" points="859.18,585.96 830.68,614.46 " />
<polyline fill="none" vector-effect="none" points="859.18,243.96 830.68,272.46 " />
<polyline fill="none" vector-effect="none" points="830.68,101.46 859.18,129.96 " />
<polyline fill="none" vector-effect="none" points="830.68,272.46 859.18,300.96 " />
<polyline fill="none" vector-effect="none" points="830.68,443.46 859.18,414.96 " />
<polyline fill="none" vector-effect="none" points="830.68,785.46 859.18,813.96 " />
<polyline fill="none" vector-effect="none" points="859.18,414.96 1001.68,414.96 " />
<polyline fill="none" vector-effect="none" points="859.18,813.96 887.68,813.96 " />
<polyline fill="none" vector-effect="none" points="859.18,300.96 887.68,300.96 " />
<polyline fill="none" vector-effect="none" points="887.68,243.96 859.18,243.96 " />
<polyline fill="none" vector-effect="none" points="859.18,471.96 887.68,471.96 " />
<polyline fill="none" vector-effect="none" points="859.18,642.96 887.68,642.96 " />
<polyline fill="none" vector-effect="none" points="859.18,756.96 1001.68,756.96 " />
<polyline fill="none" vector-effect="none" points="887.68,585.96 859.18,585.96 " />
<polyline fill="none" vector-effect="none" points="859.18,129.96 887.68,129.96 " />
<polyline fill="none" vector-effect="none" points="887.68,842.46 914.913,869.693 " />
<polyline fill="none" vector-effect="none" points="887.68,813.96 887.68,842.46 " />
<polyline fill="none" vector-effect="none" points="887.68,557.46 887.68,585.96 " />
<polyline fill="none" vector-effect="none" points="887.68,158.46 916.18,186.96 " />
<polyline fill="none" vector-effect="none" points="887.68,215.46 887.68,243.96 " />
<polyline fill="none" vector-effect="none" points="887.68,300.96 887.68,357.96 " />
<polyline fill="none" vector-effect="none" points="887.68,642.96 887.68,699.96 " />
<polyline fill="none" vector-effect="none" points="916.18,528.96 887.68,557.46 " />
<polyline fill="none" vector-effect="none" points="887.68,500.46 916.18,528.96 " />
<polyline fill="none" vector-effect="none" points="887.68,129.96 887.68,158.46 " />
<polyline fill="none" vector-effect="none" points="916.18,186.96 887.68,215.46 " />
<polyline fill="none" vector-effect="none" points="887.68,471.96 887.68,500.46 " />
<polyline fill="none" vector-effect="none" points="917.447,869.693 914.913,869.693 " />
<polyline fill="none" vector-effect="none" points="916.18,528.96 944.68,500.46 " />
<polyline fill="none" vector-effect="none" points="944.68,557.46 916.18,528.96 " />
<polyline fill="none" vector-effect="none" points="916.18,186.96 944.68,158.46 " />
<polyline fill="none" vector-effect="none" points="944.68,215.46 916.18,186.96 " />
<polyline fill="none" vector-effect="none" points="1001.68,869.693 917.447,869.693 " />
<polyline fill="none" vector-effect="none" points="917.447,869.693 944.68,842.46 " />
<polyline fill="none" vector-effect="none" points="944.68,500.46 944.68,471.96 " />
<polyline fill="none" vector-effect="none" points="1001.68,699.96 944.68,699.96 " />
<polyline fill="none" vector-effect="none" points="944.68,699.96 944.68,557.46 " />
<polyline fill="none" vector-effect="none" points="1001.68,357.96 944.68,357.96 " />
<polyline fill="none" vector-effect="none" points="944.68,471.96 1001.68,471.96 " />
<polyline fill="none" vector-effect="none" points="944.68,129.96 1001.68,129.96 " />
<polyline fill="none" vector-effect="none" points="944.68,357.96 944.68,215.46 " />
<polyline fill="none" vector-effect="none" points="944.68,813.96 1001.68,813.96 " />
<polyline fill="none" vector-effect="none" points="944.68,842.46 944.68,813.96 " />
<polyline fill="none" vector-effect="none" points="944.68,158.46 944.68,129.96 " />
<polyline fill="none" vector-effect="none" points="1058.68,699.96 1001.68,699.96 " />
<polyline fill="none" vector-effect="none" points="1001.68,300.96 1144.18,300.96 " />
<polyline fill="none" vector-effect="none" points="1001.68,642.96 1144.18,642.96 " />
<polyline fill="none" vector-effect="none" points="1001.68,699.96 1001.68,642.96 " />
<polyline fill="none" vector-effect="none" points="1001.68,357.96 1001.68,300.96 " />
<polyline fill="none" vector-effect="none" points="1085.91,869.693 1001.68,869.693 " />
<polyline fill="none" vector-effect="none" points="1001.68,813.96 1001.68,869.693 " />
<polyline fill="none" vector-effect="none" points="1001.68,756.96 1001.68,699.96 " />
<polyline fill="none" vector-effect="none" points="1001.68,471.96 1001.68,585.96 " />
<polyline fill="none" vector-effect="none" points="1001.68,585.96 1058.68,585.96 " />
<polyline fill="none" vector-effect="none" points="1001.68,414.96 1001.68,357.96 " />
<polyline fill="none" vector-effect="none" points="1058.68,357.96 1001.68,357.96 " />
<polyline fill="none" vector-effect="none" points="1001.68,243.96 1058.68,243.96 " />
<polyline fill="none" vector-effect="none" points="1001.68,129.96 1001.68,243.96 " />
<polyline fill="none" vector-effect="none" points="1058.68,842.46 1058.68,699.96 " />
<polyline fill="none" vector-effect="none" points="1058.68,585.96 1058.68,557.46 " />
<polyline fill="none" vector-effect="none" points="1058.68,100.827 1172.05,100.827 " />
<polyline fill="none" vector-effect="none" points="1058.68,500.46 1058.68,357.96 " />
<polyline fill="none" vector-effect="none" points="1087.18,528.96 1058.68,500.46 " />
<polyline fill="none" vector-effect="none" points="1085.91,869.693 1058.68,842.46 " />
<polyline fill="none" vector-effect="none" points="1087.18,186.96 1058.68,158.46 " />
<polyline fill="none" vector-effect="none" points="1058.68,557.46 1087.18,528.96 " />
<polyline fill="none" vector-effect="none" points="1058.68,158.46 1058.68,100.827 " />
<polyline fill="none" vector-effect="none" points="1058.68,215.46 1087.18,186.96 " />
<polyline fill="none" vector-effect="none" points="1058.68,243.96 1058.68,215.46 " />
<polyline fill="none" vector-effect="none" points="1088.45,869.693 1085.91,869.693 " />
<polyline fill="none" vector-effect="none" points="1087.18,186.96 1115.68,158.46 " />
<polyline fill="none" vector-effect="none" points="1115.68,557.46 1087.18,528.96 " />
<polyline fill="none" vector-effect="none" points="1087.18,528.96 1115.68,500.46 " />
<polyline fill="none" vector-effect="none" points="1115.68,215.46 1087.18,186.96 " />
<polyline fill="none" vector-effect="none" points="1256.28,869.693 1088.45,869.693 " />
<polyline fill="none" vector-effect="none" points="1088.45,869.693 1115.68,842.46 " />
<polyline fill="none" vector-effect="none" points="1115.68,813.96 1144.18,813.96 " />
<polyline fill="none" vector-effect="none" points="1115.68,842.46 1115.68,813.96 " />
<polyline fill="none" vector-effect="none" points="1115.68,129.96 1144.18,129.96 " />
<polyline fill="none" vector-effect="none" points="1115.68,243.96 1115.68,215.46 " />
<polyline fill="none" vector-effect="none" points="1115.68,357.96 1115.68,414.96 " />
<polyline fill="none" vector-effect="none" points="1115.68,158.46 1115.68,129.96 " />
<polyline fill="none" vector-effect="none" points="1115.68,756.96 1144.18,756.96 " />
<polyline fill="none" vector-effect="none" points="1115.68,585.96 1115.68,557.46 " />
<polyline fill="none" vector-effect="none" points="1115.68,699.96 1115.68,756.96 " />
<polyline fill="none" vector-effect="none" points="1115.68,471.96 1144.18,471.96 " />
<polyline fill="none" vector-effect="none" points="1115.68,500.46 1115.68,471.96 " />
<polyline fill="none" vector-effect="none" points="1229.68,699.96 1115.68,699.96 " />
<polyline fill="none" vector-effect="none" points="1115.68,414.96 1144.18,414.96 " />
<polyline fill="none" vector-effect="none" points="1229.68,357.96 1115.68,357.96 " />
<polyline fill="none" vector-effect="none" points="1144.18,243.96 1115.68,243.96 " />
<polyline fill="none" vector-effect="none" points="1144.18,585.96 1115.68,585.96 " />
<polyline fill="none" vector-effect="none" points="1172.68,614.46 1144.18,585.96 " />
<polyline fill="none" vector-effect="none" points="1144.18,642.96 1172.68,614.46 " />
<polyline fill="none" vector-effect="none" points="1144.18,756.96 1172.68,785.46 " />
<polyline fill="none" vector-effect="none" points="1144.18,471.96 1172.68,443.46 " />
<polyline fill="none" vector-effect="none" points="1144.18,813.96 1172.68,785.46 " />
<polyline fill="none" vector-effect="none" points="1144.18,129.96 1172.68,101.46 " />
<polyline fill="none" vector-effect="none" points="1144.18,300.96 1172.68,272.46 " />
<polyline fill="none" vector-effect="none" points="1144.18,414.96 1172.68,443.46 " />
<polyline fill="none" vector-effect="none" points="1172.68,272.46 1144.18,243.96 " />
<polyline fill="none" vector-effect="none" points="1172.05,100.827 1173.31,100.827 " />
<polyline fill="none" vector-effect="none" points="1172.05,100.827 1172.68,101.46 " />
<polyline fill="none" vector-effect="none" points="1172.68,443.46 1201.18,414.96 " />
<polyline fill="none" vector-effect="none" points="1201.18,243.96 1172.68,272.46 " />
<polyline fill="none" vector-effect="none" points="1172.68,272.46 1201.18,300.96 " />
<polyline fill="none" vector-effect="none" points="1172.68,101.46 1201.18,129.96 " />
<polyline fill="none" vector-effect="none" points="1201.18,585.96 1172.68,614.46 " />
<polyline fill="none" vector-effect="none" points="1172.68,101.46 1173.31,100.827 " />
<polyline fill="none" vector-effect="none" points="1172.68,785.46 1201.18,813.96 " />
<polyline fill="none" vector-effect="none" points="1172.68,614.46 1201.18,642.96 " />
<polyline fill="none" vector-effect="none" points="1172.68,443.46 1201.18,471.96 " />
<polyline fill="none" vector-effect="none" points="1172.68,785.46 1201.18,756.96 " />
<polyline fill="none" vector-effect="none" points="1173.31,100.827 1256.28,100.827 " />
<polyline fill="none" vector-effect="none" points="1201.18,813.96 1229.68,813.96 " />
<polyline fill="none" vector-effect="none" points="1229.68,585.96 1201.18,585.96 " />
<polyline fill="none" vector-effect="none" points="1201.18,414.96 1256.28,414.96 " />
<polyline fill="none" vector-effect="none" points="1201.18,300.96 1229.68,300.96 " />
<polyline fill="none" vector-effect="none" points="1201.18,471.96 1229.68,471.96 " />
<polyline fill="none" vector-effect="none" points="1201.18,756.96 1256.28,756.96 " />
<polyline fill="none" vector-effect="none" points="1201.18,642.96 1229.68,642.96 " />
<polyline fill="none" vector-effect="none" points="1229.68,243.96 1201.18,243.96 " />
<polyline fill="none" vector-effect="none" points="1201.18,129.96 1229.68,129.96 " />
<polyline fill="none" vector-effect="none" points="1229.68,129.96 1229.68,158.46 " />
<polyline fill="none" vector-effect="none" points="1229.68,642.96 1229.68,699.96 " />
<polyline fill="none" vector-effect="none" points="1229.68,842.46 1256.28,869.06 " />
<polyline fill="none" vector-effect="none" points="1229.68,500.46 1256.28,527.06 " />
<polyline fill="none" vector-effect="none" points="1229.68,158.46 1256.28,185.06 " />
<polyline fill="none" vector-effect="none" points="1229.68,471.96 1229.68,500.46 " />
<polyline fill="none" vector-effect="none" points="1229.68,557.46 1229.68,585.96 " />
<polyline fill="none" vector-effect="none" points="1229.68,215.46 1229.68,243.96 " />
<polyline fill="none" vector-effect="none" points="1256.28,530.86 1229.68,557.46 " />
<polyline fill="none" vector-effect="none" points="1256.28,188.86 1229.68,215.46 " />
<polyline fill="none" vector-effect="none" points="1229.68,300.96 1229.68,357.96 " />
<polyline fill="none" vector-effect="none" points="1229.68,813.96 1229.68,842.46 " />
<polyline fill="none" vector-effect="none" points="1256.28,527.06 1256.28,530.86 " />
<polyline fill="none" vector-effect="none" points="1256.28,188.86 1256.28,414.96 " />
<polyline fill="none" vector-effect="none" points="1256.28,756.96 1256.28,869.06 " />
<polyline fill="none" vector-effect="none" points="1256.28,869.06 1256.28,869.693 " />
<polyline fill="none" vector-effect="none" points="1256.28,530.86 1256.28,756.96 " />
<polyline fill="none" vector-effect="none" points="1256.28,414.96 1256.28,527.06 " />
<polyline fill="none" vector-effect="none" points="1256.28,185.06 1256.28,188.86 " />
<polyline fill="none" vector-effect="none" points="1256.28,100.827 1256.28,185.06 " />
</g>

<g fill="none" stroke="#ffffff" stroke-opacity="1" stroke-width="11.4" stroke-linecap="round" stroke-linejoin="round" transform="matrix(1,0,0,1,0,0)"
font-family="MS Shell Dlg 2" font-size="8.25" font-weight="400" font-style="normal" 
>
<polyline fill="none" vector-effect="none" points="482.347,620.793 488.68,614.46 " />
<polyline fill="none" vector-effect="none" points="482.347,791.793 488.68,785.46 " />
<polyline fill="none" vector-effect="none" points="482.347,779.127 488.68,785.46 " />
<polyline fill="none" vector-effect="none" points="482.347,869.693 482.347,791.793 " />
<polyline fill="none" vector-effect="none" points="482.347,100.827 488.047,100.827 " />
<polyline fill="none" vector-effect="none" points="572.913,869.693 482.347,869.693 " />
<polyline fill="none" vector-effect="none" points="482.347,449.793 488.68,443.46 " />
<polyline fill="none" vector-effect="none" points="488.68,614.46 482.347,608.127 " />
<polyline fill="none" vector-effect="none" points="488.68,272.46 482.347,266.127 " />
<polyline fill="none" vector-effect="none" points="545.68,357.96 482.347,357.96 " />
<polyline fill="none" vector-effect="none" points="482.347,437.127 488.68,443.46 " />
<polyline fill="none" vector-effect="none" points="482.347,107.793 488.68,101.46 " />
<polyline fill="none" vector-effect="none" points="545.68,699.96 482.347,699.96 " />
<polyline fill="none" vector-effect="none" points="482.347,278.793 488.68,272.46 " />
<polyline fill="none" vector-effect="none" points="482.347,620.793 482.347,608.127 " />
<polyline fill="none" vector-effect="none" points="482.347,791.793 482.347,779.127 " />
<polyline fill="none" vector-effect="none" points="482.347,779.127 482.347,699.96 " />
<polyline fill="none" vector-effect="none" points="482.347,449.793 482.347,437.127 " />
<polyline fill="none" vector-effect="none" points="482.347,608.127 482.347,449.793 " />
<polyline fill="none" vector-effect="none" points="482.347,266.127 482.347,107.793 " />
<polyline fill="none" vector-effect="none" points="482.347,357.96 482.347,278.793 " />
<polyline fill="none" vector-effect="none" points="482.347,437.127 482.347,357.96 " />
<polyline fill="none" vector-effect="none" points="482.347,107.793 482.347,100.827 " />
<polyline fill="none" vector-effect="none" points="482.347,699.96 482.347,620.793 " />
<polyline fill="none" vector-effect="none" points="482.347,278.793 482.347,266.127 " />
<polyline fill="none" vector-effect="none" points="488.047,100.827 489.313,100.827 " />
<polyline fill="none" vector-effect="none" points="488.047,100.827 488.68,101.46 " />
<polyline fill="none" vector-effect="none" points="488.68,101.46 517.18,129.96 " />
<polyline fill="none" vector-effect="none" points="488.68,443.46 517.18,471.96 " />
<polyline fill="none" vector-effect="none" points="488.68,785.46 517.18,756.96 " />
<polyline fill="none" vector-effect="none" points="488.68,443.46 517.18,414.96 " />
<polyline fill="none" vector-effect="none" points="488.68,272.46 517.18,300.96 " />
<polyline fill="none" vector-effect="none" points="517.18,585.96 488.68,614.46 " />
<polyline fill="none" vector-effect="none" points="488.68,785.46 517.18,813.96 " />
<polyline fill="none" vector-effect="none" points="517.18,243.96 488.68,272.46 " />
<polyline fill="none" vector-effect="none" points="488.68,101.46 489.313,100.827 " />
<polyline fill="none" vector-effect="none" points="488.68,614.46 517.18,642.96 " />
<polyline fill="none" vector-effect="none" points="489.313,100.827 716.68,100.827 " />
<polyline fill="none" vector-effect="none" points="517.18,756.96 659.68,756.96 " />
<polyline fill="none" vector-effect="none" points="517.18,471.96 545.68,471.96 " />
<polyline fill="none" vector-effect="none" points="517.18,642.96 545.68,642.96 " />
<polyline fill="none" vector-effect="none" points="545.68,243.96 517.18,243.96 " />
<polyline fill="none" vector-effect="none" points="517.18,414.96 659.68,414.96 " />
<polyline fill="none" vector-effect="none" points="517.18,300.96 545.68,300.96 " />
<polyline fill="none" vector-effect="none" points="545.68,585.96 517.18,585.96 " />
<polyline fill="none" vector-effect="none" points="517.18,129.96 545.68,129.96 " />
<polyline fill="none" vector-effect="none" points="517.18,813.96 545.68,813.96 " />
<polyline fill="none" vector-effect="none" points="545.68,129.96 545.68,158.46 " />
<polyline fill="none" vector-effect="none" points="545.68,158.46 574.18,186.96 " />
<polyline fill="none" vector-effect="none" points="545.68,300.96 545.68,357.96 " />
<polyline fill="none" vector-effect="none" points="574.18,186.96 545.68,215.46 " />
<polyline fill="none" vector-effect="none" points="545.68,215.46 545.68,243.96 " />
<polyline fill="none" vector-effect="none" points="545.68,500.46 574.18,528.96 " />
<polyline fill="none" vector-effect="none" points="574.18,528.96 545.68,557.46 " />
<polyline fill="none" vector-effect="none" points="545.68,557.46 545.68,585.96 " />
<polyline fill="none" vector-effect="none" points="545.68,471.96 545.68,500.46 " />
<polyline fill="none" vector-effect="none" points="545.68,842.46 572.913,869.693 " />
<polyline fill="none" vector-effect="none" points="545.68,813.96 545.68,842.46 " />
<polyline fill="none" vector-effect="none" points="545.68,642.96 545.68,699.96 " />
<polyline fill="none" vector-effect="none" points="575.447,869.693 572.913,869.693 " />
<polyline fill="none" vector-effect="none" points="602.68,215.46 574.18,186.96 " />
<polyline fill="none" vector-effect="none" points="574.18,528.96 602.68,500.46 " />
<polyline fill="none" vector-effect="none" points="574.18,186.96 602.68,158.46 " />
<polyline fill="none" vector-effect="none" points="602.68,557.46 574.18,528.96 " />
<polyline fill="none" vector-effect="none" points="659.68,869.693 575.447,869.693 " />
<polyline fill="none" vector-effect="none" points="575.447,869.693 602.68,842.46 " />
<polyline fill="none" vector-effect="none" points="659.68,357.96 602.68,357.96 " />
<polyline fill="none" vector-effect="none" points="602.68,357.96 602.68,215.46 " />
<polyline fill="none" vector-effect="none" points="602.68,129.96 659.68,129.96 " />
<polyline fill="none" vector-effect="none" points="602.68,158.46 602.68,129.96 " />
<polyline fill="none" vector-effect="none" points="602.68,813.96 659.68,813.96 " />
<polyline fill="none" vector-effect="none" points="602.68,471.96 659.68,471.96 " />
<polyline fill="none" vector-effect="none" points="602.68,842.46 602.68,813.96 " />
<polyline fill="none" vector-effect="none" points="602.68,500.46 602.68,471.96 " />
<polyline fill="none" vector-effect="none" points="659.68,699.96 602.68,699.96 " />
<polyline fill="none" vector-effect="none" points="602.68,699.96 602.68,557.46 " />
<polyline fill="none" vector-effect="none" points="659.68,300.96 802.18,300.96 " />
<polyline fill="none" vector-effect="none" points="716.68,357.96 659.68,357.96 " />
<polyline fill="none" vector-effect="none" points="659.68,357.96 659.68,300.96 " />
<polyline fill="none" vector-effect="none" points="659.68,243.96 716.68,243.96 " />
<polyline fill="none" vector-effect="none" points="659.68,756.96 659.68,699.96 " />
<polyline fill="none" vector-effect="none" points="743.913,869.693 659.68,869.693 " />
<polyline fill="none" vector-effect="none" points="659.68,471.96 659.68,585.96 " />
<polyline fill="none" vector-effect="none" points="659.68,585.96 716.68,585.96 " />
<polyline fill="none" vector-effect="none" points="716.68,699.96 659.68,699.96 " />
<polyline fill="none" vector-effect="none" points="659.68,414.96 659.68,357.96 " />
<polyline fill="none" vector-effect="none" points="659.68,129.96 659.68,243.96 " />
<polyline fill="none" vector-effect="none" points="659.68,699.96 659.68,642.96 " />
<polyline fill="none" vector-effect="none" points="659.68,642.96 802.18,642.96 " />
<polyline fill="none" vector-effect="none" points="659.68,813.96 659.68,869.693 " />
<polyline fill="none" vector-effect="none" points="716.68,557.46 745.18,528.96 " />
<polyline fill="none" vector-effect="none" points="716.68,500.46 716.68,357.96 " />
<polyline fill="none" vector-effect="none" points="716.68,158.46 716.68,100.827 " />
<polyline fill="none" vector-effect="none" points="716.68,243.96 716.68,215.46 " />
<polyline fill="none" vector-effect="none" points="745.18,186.96 716.68,158.46 " />
<polyline fill="none" vector-effect="none" points="716.68,842.46 716.68,699.96 " />
<polyline fill="none" vector-effect="none" points="716.68,215.46 745.18,186.96 " />
<polyline fill="none" vector-effect="none" points="745.18,528.96 716.68,500.46 " />
<polyline fill="none" vector-effect="none" points="716.68,585.96 716.68,557.46 " />
<polyline fill="none" vector-effect="none" points="716.68,100.827 830.047,100.827 " />
<polyline fill="none" vector-effect="none" points="743.913,869.693 716.68,842.46 " />
<polyline fill="none" vector-effect="none" points="746.447,869.693 743.913,869.693 " />
<polyline fill="none" vector-effect="none" points="745.18,528.96 773.68,500.46 " />
<polyline fill="none" vector-effect="none" points="773.68,215.46 745.18,186.96 " />
<polyline fill="none" vector-effect="none" points="745.18,186.96 773.68,158.46 " />
<polyline fill="none" vector-effect="none" points="773.68,557.46 745.18,528.96 " />
<polyline fill="none" vector-effect="none" points="914.913,869.693 746.447,869.693 " />
<polyline fill="none" vector-effect="none" points="746.447,869.693 773.68,842.46 " />
<polyline fill="none" vector-effect="none" points="773.68,842.46 773.68,813.96 " />
<polyline fill="none" vector-effect="none" points="773.68,813.96 802.18,813.96 " />
<polyline fill="none" vector-effect="none" points="802.18,585.96 773.68,585.96 " />
<polyline fill="none" vector-effect="none" points="773.68,414.96 802.18,414.96 " />
<polyline fill="none" vector-effect="none" points="773.68,471.96 802.18,471.96 " />
<polyline fill="none" vector-effect="none" points="773.68,756.96 802.18,756.96 " />
<polyline fill="none" vector-effect="none" points="773.68,585.96 773.68,557.46 " />
<polyline fill="none" vector-effect="none" points="773.68,500.46 773.68,471.96 " />
<polyline fill="none" vector-effect="none" points="773.68,699.96 773.68,756.96 " />
<polyline fill="none" vector-effect="none" points="887.68,699.96 773.68,699.96 " />
<polyline fill="none" vector-effect="none" points="773.68,129.96 802.18,129.96 " />
<polyline fill="none" vector-effect="none" points="773.68,357.96 773.68,414.96 " />
<polyline fill="none" vector-effect="none" points="802.18,243.96 773.68,243.96 " />
<polyline fill="none" vector-effect="none" points="773.68,158.46 773.68,129.96 " />
<polyline fill="none" vector-effect="none" points="773.68,243.96 773.68,215.46 " />
<polyline fill="none" vector-effect="none" points="887.68,357.96 773.68,357.96 " />
<polyline fill="none" vector-effect="none" points="802.18,756.96 830.68,785.46 " />
<polyline fill="none" vector-effect="none" points="802.18,642.96 830.68,614.46 " />
<polyline fill="none" vector-effect="none" points="830.68,614.46 802.18,585.96 " />
<polyline fill="none" vector-effect="none" points="802.18,471.96 830.68,443.46 " />
<polyline fill="none" vector-effect="none" points="802.18,813.96 830.68,785.46 " />
<polyline fill="none" vector-effect="none" points="802.18,129.96 830.68,101.46 " />
<polyline fill="none" vector-effect="none" points="802.18,414.96 830.68,443.46 " />
<polyline fill="none" vector-effect="none" points="802.18,300.96 830.68,272.46 " />
<polyline fill="none" vector-effect="none" points="830.68,272.46 802.18,243.96 " />
<polyline fill="none" vector-effect="none" points="830.047,100.827 830.68,101.46 " />
<polyline fill="none" vector-effect="none" points="830.047,100.827 1058.68,100.827 " />
<polyline fill="none" vector-effect="none" points="830.68,443.46 859.18,471.96 " />
<polyline fill="none" vector-effect="none" points="830.68,785.46 859.18,756.96 " />
<polyline fill="none" vector-effect="none" points="830.68,614.46 859.18,642.96 " />
<polyline fill="none" vector-effect="none" points="859.18,585.96 830.68,614.46 " />
<polyline fill="none" vector-effect="none" points="859.18,243.96 830.68,272.46 " />
<polyline fill="none" vector-effect="none" points="830.68,101.46 859.18,129.96 " />
<polyline fill="none" vector-effect="none" points="830.68,272.46 859.18,300.96 " />
<polyline fill="none" vector-effect="none" points="830.68,443.46 859.18,414.96 " />
<polyline fill="none" vector-effect="none" points="830.68,785.46 859.18,813.96 " />
<polyline fill="none" vector-effect="none" points="859.18,414.96 1001.68,414.96 " />
<polyline fill="none" vector-effect="none" points="859.18,813.96 887.68,813.96 " />
<polyline fill="none" vector-effect="none" points="859.18,300.96 887.68,300.96 " />
<polyline fill="none" vector-effect="none" points="887.68,243.96 859.18,243.96 " />
<polyline fill="none" vector-effect="none" points="859.18,471.96 887.68,471.96 " />
<polyline fill="none" vector-effect="none" points="859.18,642.96 887.68,642.96 " />
<polyline fill="none" vector-effect="none" points="859.18,756.96 1001.68,756.96 " />
<polyline fill="none" vector-effect="none" points="887.68,585.96 859.18,585.96 " />
<polyline fill="none" vector-effect="none" points="859.18,129.96 887.68,129.96 " />
<polyline fill="none" vector-effect="none" points="887.68,842.46 914.913,869.693 " />
<polyline fill="none" vector-effect="none" points="887.68,813.96 887.68,842.46 " />
<polyline fill="none" vector-effect="none" points="887.68,557.46 887.68,585.96 " />
<polyline fill="none" vector-effect="none" points="887.68,158.46 916.18,186.96 " />
<polyline fill="none" vector-effect="none" points="887.68,215.46 887.68,243.96 " />
<polyline fill="none" vector-effect="none" points="887.68,300.96 887.68,357.96 " />
<polyline fill="none" vector-effect="none" points="887.68,642.96 887.68,699.96 " />
<polyline fill="none" vector-effect="none" points="916.18,528.96 887.68,557.46 " />
<polyline fill="none" vector-effect="none" points="887.68,500.46 916.18,528.96 " />
<polyline fill="none" vector-effect="none" points="887.68,129.96 887.68,158.46 " />
<polyline fill="none" vector-effect="none" points="916.18,186.96 887.68,215.46 " />
<polyline fill="none" vector-effect="none" points="887.68,471.96 887.68,500.46 " />
<polyline fill="none" vector-effect="none" points="917.447,869.693 914.913,869.693 " />
<polyline fill="none" vector-effect="none" points="916.18,528.96 944.68,500.46 " />
<polyline fill="none" vector-effect="none" points="944.68,557.46 916.18,528.96 " />
<polyline fill="none" vector-effect="none" points="916.18,186.96 944.68,158.46 " />
<polyline fill="none" vector-effect="none" points="944.68,215.46 916.18,186.96 " />
<polyline fill="none" vector-effect="none" points="1001.68,869.693 917.447,869.693 " />
<polyline fill="none" vector-effect="none" points="917.447,869.693 944.68,842.46 " />
<polyline fill="none" vector-effect="none" points="944.68,500.46 944.68,471.96 " />
<polyline fill="none" vector-effect="none" points="1001.68,699.96 944.68,699.96 " />
<polyline fill="none" vector-effect="none" points="944.68,699.96 944.68,557.46 " />
<polyline fill="none" vector-effect="none" points="1001.68,357.96 944.68,357.96 " />
<polyline fill="none" vector-effect="none" points="944.68,471.96 1001.68,471.96 " />
<polyline fill="none" vector-effect="none" points="944.68,129.96 1001.68,129.96 " />
<polyline fill="none" vector-effect="none" points="944.68,357.96 944.68,215.46 " />
<polyline fill="none" vector-effect="none" points="944.68,813.96 1001.68,813.96 " />
<polyline fill="none" vector-effect="none" points="944.68,842.46 944.68,813.96 " />
<polyline fill="none" vector-effect="none" points="944.68,158.46 944.68,129.96 " />
<polyline fill="none" vector-effect="none" points="1058.68,699.96 1001.68,699.96 " />
<polyline fill="none" vector-effect="none" points="1001.68,300.96 1144.18,300.96 " />
<polyline fill="none" vector-effect="none" points="1001.68,642.96 1144.18,642.96 " />
<polyline fill="none" vector-effect="none" points="1001.68,699.96 1001.68,642.96 " />
<polyline fill="none" vector-effect="none" points="1001.68,357.96 1001.68,300.96 " />
<polyline fill="none" vector-effect="none" points="1085.91,869.693 1001.68,869.693 " />
<polyline fill="none" vector-effect="none" points="1001.68,813.96 1001.68,869.693 " />
<polyline fill="none" vector-effect="none" points="1001.68,756.96 1001.68,699.96 " />
<polyline fill="none" vector-effect="none" points="1001.68,471.96 1001.68,585.96 " />
<polyline fill="none" vector-effect="none" points="1001.68,585.96 1058.68,585.96 " />
<polyline fill="none" vector-effect="none" points="1001.68,414.96 1001.68,357.96 " />
<polyline fill="none" vector-effect="none" points="1058.68,357.96 1001.68,357.96 " />
<polyline fill="none" vector-effect="none" points="1001.68,243.96 1058.68,243.96 " />
<polyline fill="none" vector-effect="none" points="1001.68,129.96 1001.68,243.96 " />
<polyline fill="none" vector-effect="none" points="1058.68,842.46 1058.68,699.96 " />
<polyline fill="none" vector-effect="none" points="1058.68,585.96 1058.68,557.46 " />
<polyline fill="none" vector-effect="none" points="1058.68,100.827 1172.05,100.827 " />
<polyline fill="none" vector-effect="none" points="1058.68,500.46 1058.68,357.96 " />
<polyline fill="none" vector-effect="none" points="1087.18,528.96 1058.68,500.46 " />
<polyline fill="none" vector-effect="none" points="1085.91,869.693 1058.68,842.46 " />
<polyline fill="none" vector-effect="none" points="1087.18,186.96 1058.68,158.46 " />
<polyline fill="none" vector-effect="none" points="1058.68,557.46 1087.18,528.96 " />
<polyline fill="none" vector-effect="none" points="1058.68,158.46 1058.68,100.827 " />
<polyline fill="none" vector-effect="none" points="1058.68,215.46 1087.18,186.96 " />
<polyline fill="none" vector-effect="none" points="1058.68,243.96 1058.68,215.46 " />
<polyline fill="none" vector-effect="none" points="1088.45,869.693 1085.91,869.693 " />
<polyline fill="none" vector-effect="none" points="1087.18,186.96 1115.68,158.46 " />
<polyline fill="none" vector-effect="none" points="1115.68,557.46 1087.18,528.96 " />
<polyline fill="none" vector-effect="none" points="1087.18,528.96 1115.68,500.46 " />
<polyline fill="none" vector-effect="none" points="1115.68,215.46 1087.18,186.96 " />
<polyline fill="none" vector-effect="none" points="1256.28,869.693 1088.45,869.693 " />
<polyline fill="none" vector-effect="none" points="1088.45,869.693 1115.68,842.46 " />
<polyline fill="none" vector-effect="none" points="1115.68,813.96 1144.18,813.96 " />
<polyline fill="none" vector-effect="none" points="1115.68,842.46 1115.68,813.96 " />
<polyline fill="none" vector-effect="none" points="1115.68,129.96 1144.18,129.96 " />
<polyline fill="none" vector-effect="none" points="1115.68,243.96 1115.68,215.46 " />
<polyline fill="none" vector-effect="none" points="1115.68,357.96 1115.68,414.96 " />
<polyline fill="none" vector-effect="none" points="1115.68,158.46 1115.68,129.96 " />
<polyline fill="none" vector-effect="none" points="1115.68,756.96 1144.18,756.96 " />
<polyline fill="none" vector-effect="none" points="1115.68,585.96 1115.68,557.46 " />
<polyline fill="none" vector-effect="none" points="1115.68,699.96 1115.68,756.96 " />
<polyline fill="none" vector-effect="none" points="1115.68,471.96 1144.18,471.96 " />
<polyline fill="none" vector-effect="none" points="1115.68,500.46 1115.68,471.96 " />
<polyline fill="none" vector-effect="none" points="1229.68,699.96 1115.68,699.96 " />
<polyline fill="none" vector-effect="none" points="1115.68,414.96 1144.18,414.96 " />
<polyline fill="none" vector-effect="none" points="1229.68,357.96 1115.68,357.96 " />
<polyline fill="none" vector-effect="none" points="1144.18,243.96 1115.68,243.96 " />
<polyline fill="none" vector-effect="none" points="1144.18,585.96 1115.68,585.96 " />
<polyline fill="none" vector-effect="none" points="1172.68,614.46 1144.18,585.96 " />
<polyline fill="none" vector-effect="none" points="1144.18,642.96 1172.68,614.46 " />
<polyline fill="none" vector-effect="none" points="1144.18,756.96 1172.68,785.46 " />
<polyline fill="none" vector-effect="none" points="1144.18,471.96 1172.68,443.46 " />
<polyline fill="none" vector-effect="none" points="1144.18,813.96 1172.68,785.46 " />
<polyline fill="none" vector-effect="none" points="1144.18,129.96 1172.68,101.46 " />
<polyline fill="none" vector-effect="none" points="1144.18,300.96 1172.68,272.46 " />
<polyline fill="none" vector-effect="none" points="1144.18,414.96 1172.68,443.46 " />
<polyline fill="none" vector-effect="none" points="1172.68,272.46 1144.18,243.96 " />
<polyline fill="none" vector-effect="none" points="1172.05,100.827 1173.31,100.827 " />
<polyline fill="none" vector-effect="none" points="1172.05,100.827 1172.68,101.46 " />
<polyline fill="none" vector-effect="none" points="1172.68,443.46 1201.18,414.96 " />
<polyline fill="none" vector-effect="none" points="1201.18,243.96 1172.68,272.46 " />
<polyline fill="none" vector-effect="none" points="1172.68,272.46 1201.18,300.96 " />
<polyline fill="none" vector-effect="none" points="1172.68,101.46 1201.18,129.96 " />
<polyline fill="none" vector-effect="none" points="1201.18,585.96 1172.68,614.46 " />
<polyline fill="none" vector-effect="none" points="1172.68,101.46 1173.31,100.827 " />
<polyline fill="none" vector-effect="none" points="1172.68,785.46 1201.18,813.96 " />
<polyline fill="none" vector-effect="none" points="1172.68,614.46 1201.18,642.96 " />
<polyline fill="none" vector-effect="none" points="1172.68,443.46 1201.18,471.96 " />
<polyline fill="none" vector-effect="none" points="1172.68,785.46 1201.18,756.96 " />
<polyline fill="none" vector-effect="none" points="1173.31,100.827 1256.28,100.827 " />
<polyline fill="none" vector-effect="none" points="1201.18,813.96 1229.68,813.96 " />
<polyline fill="none" vector-effect="none" points="1229.68,585.96 1201.18,585.96 " />
<polyline fill="none" vector-effect="none" points="1201.18,414.96 1256.28,414.96 " />
<polyline fill="none" vector-effect="none" points="1201.18,300.96 1229.68,300.96 " />
<polyline fill="none" vector-effect="none" points="1201.18,471.96 1229.68,471.96 " />
<polyline fill="none" vector-effect="none" points="1201.18,756.96 1256.28,756.96 " />
<polyline fill="none" vector-effect="none" points="1201.18,642.96 1229.68,642.96 " />
<polyline fill="none" vector-effect="none" points="1229.68,243.96 1201.18,243.96 " />
<polyline fill="none" vector-effect="none" points="1201.18,129.96 1229.68,129.96 " />
<polyline fill="none" vector-effect="none" points="1229.68,129.96 1229.68,158.46 " />
<polyline fill="none" vector-effect="none" points="1229.68,642.96 1229.68,699.96 " />
<polyline fill="none" vector-effect="none" points="1229.68,842.46 1256.28,869.06 " />
<polyline fill="none" vector-effect="none" points="1229.68,500.46 1256.28,527.06 " />
<polyline fill="none" vector-effect="none" points="1229.68,158.46 1256.28,185.06 " />
<polyline fill="none" vector-effect="none" points="1229.68,471.96 1229.68,500.46 " />
<polyline fill="none" vector-effect="none" points="1229.68,557.46 1229.68,585.96 " />
<polyline fill="none" vector-effect="none" points="1229.68,215.46 1229.68,243.96 " />
<polyline fill="none" vector-effect="none" points="1256.28,530.86 1229.68,557.46 " />
<polyline fill="none" vector-effect="none" points="1256.28,188.86 1229.68,215.46 " />
<polyline fill="none" vector-effect="none" points="1229.68,300.96 1229.68,357.96 " />
<polyline fill="none" vector-effect="none" points="1229.68,813.96 1229.68,842.46 " />
<polyline fill="none" vector-effect="none" points="1256.28,527.06 1256.28,530.86 " />
<polyline fill="none" vector-effect="none" points="1256.28,188.86 1256.28,414.96 " />
<polyline fill="none" vector-effect="none" points="1256.28,756.96 1256.28,869.06 " />
<polyline fill="none" vector-effect="none" points="1256.28,869.06 1256.28,869.693 " />
<polyline fill="none" vector-effect="none" points="1256.28,530.86 1256.28,756.96 " />
<polyline fill="none" vector-effect="none" points="1256.28,414.96 1256.28,527.06 " />
<polyline fill="none" vector-effect="none" points="1256.28,185.06 1256.28,188.86 " />
<polyline fill="none" vector-effect="none" points="1256.28,100.827 1256.28,185.06 " />
</g>
</g>
</svg>
